<?xml version="1.0" encoding="utf-8" standalone="no"?>
<!DOCTYPE svg PUBLIC "-//W3C//DTD SVG 1.1//EN"
  "http://www.w3.org/Graphics/SVG/1.1/DTD/svg11.dtd">
<svg xmlns:xlink="http://www.w3.org/1999/xlink" width="371.085756pt" height="268.473533pt" viewBox="0 0 371.085756 268.473533" xmlns="http://www.w3.org/2000/svg" version="1.1">
 <metadata>
  <rdf:RDF xmlns:dc="http://purl.org/dc/elements/1.1/" xmlns:cc="http://creativecommons.org/ns#" xmlns:rdf="http://www.w3.org/1999/02/22-rdf-syntax-ns#">
   <cc:Work>
    <dc:type rdf:resource="http://purl.org/dc/dcmitype/StillImage"/>
    <dc:date>2025-01-09T12:49:04.309147</dc:date>
    <dc:format>image/svg+xml</dc:format>
    <dc:creator>
     <cc:Agent>
      <dc:title>Matplotlib v3.9.3, https://matplotlib.org/</dc:title>
     </cc:Agent>
    </dc:creator>
   </cc:Work>
  </rdf:RDF>
 </metadata>
 <defs>
  <style type="text/css">*{stroke-linejoin: round; stroke-linecap: butt}</style>
 </defs>
 <g id="figure_1">
  <g id="patch_1">
   <path d="M 0 268.473533 
L 371.085756 268.473533 
L 371.085756 0 
L 0 0 
z
" style="fill: #ffffff"/>
  </g>
  <g id="axes_1">
   <g id="patch_2">
    <path d="M 32.685756 239.66218 
L 367.485756 239.66218 
L 367.485756 17.90218 
L 32.685756 17.90218 
z
" style="fill: #ffffff"/>
   </g>
   <g id="matplotlib.axis_1">
    <g id="xtick_1">
     <g id="line2d_1">
      <defs>
       <path id="m097b91765d" d="M 0 0 
L 0 -3 
" style="stroke: #000000; stroke-width: 0.5"/>
      </defs>
      <g>
       <use xlink:href="#m097b91765d" x="47.903938" y="239.66218" style="stroke: #000000; stroke-width: 0.5"/>
      </g>
     </g>
     <g id="line2d_2">
      <defs>
       <path id="m5c062736d7" d="M 0 0 
L 0 3 
" style="stroke: #000000; stroke-width: 0.5"/>
      </defs>
      <g>
       <use xlink:href="#m5c062736d7" x="47.903938" y="17.90218" style="stroke: #000000; stroke-width: 0.5"/>
      </g>
     </g>
     <g id="text_1">
      <!-- $\mathdefault{−3}$ -->
      <g transform="translate(41.538898 250.080678) scale(0.1 -0.1)">
       <defs>
        <path id="CMSY10-0" d="M 4218 1472 
C 4326 1472 4442 1472 4442 1600 
C 4442 1728 4326 1728 4218 1728 
L 755 1728 
C 646 1728 531 1728 531 1600 
C 531 1472 646 1472 755 1472 
L 4218 1472 
z
" transform="scale(0.015625)"/>
        <path id="CMR17-33" d="M 1414 2157 
C 1984 2157 2234 1662 2234 1090 
C 2234 320 1824 25 1453 25 
C 1114 25 563 194 390 693 
C 422 680 454 680 486 680 
C 640 680 755 782 755 948 
C 755 1133 614 1216 486 1216 
C 378 1216 211 1165 211 926 
C 211 335 787 -128 1466 -128 
C 2176 -128 2720 430 2720 1085 
C 2720 1707 2208 2157 1600 2227 
C 2086 2328 2554 2756 2554 3329 
C 2554 3820 2048 4179 1472 4179 
C 890 4179 378 3829 378 3329 
C 378 3110 544 3072 627 3072 
C 762 3072 877 3155 877 3321 
C 877 3486 762 3569 627 3569 
C 602 3569 570 3569 544 3557 
C 730 3959 1235 4032 1459 4032 
C 1683 4032 2106 3925 2106 3320 
C 2106 3143 2080 2828 1862 2550 
C 1670 2304 1453 2304 1242 2284 
C 1210 2284 1062 2269 1037 2269 
C 992 2263 966 2257 966 2208 
C 966 2163 973 2157 1101 2157 
L 1414 2157 
z
" transform="scale(0.015625)"/>
       </defs>
       <use xlink:href="#CMSY10-0" transform="scale(0.996264)"/>
       <use xlink:href="#CMR17-33" transform="translate(77.487468 0) scale(0.996264)"/>
      </g>
     </g>
    </g>
    <g id="xtick_2">
     <g id="line2d_3">
      <g>
       <use xlink:href="#m097b91765d" x="98.63121" y="239.66218" style="stroke: #000000; stroke-width: 0.5"/>
      </g>
     </g>
     <g id="line2d_4">
      <g>
       <use xlink:href="#m5c062736d7" x="98.63121" y="17.90218" style="stroke: #000000; stroke-width: 0.5"/>
      </g>
     </g>
     <g id="text_2">
      <!-- $\mathdefault{−2}$ -->
      <g transform="translate(92.266171 250.080678) scale(0.1 -0.1)">
       <defs>
        <path id="CMR17-32" d="M 2669 989 
L 2554 989 
C 2490 536 2438 459 2413 420 
C 2381 369 1920 369 1830 369 
L 602 369 
C 832 619 1280 1072 1824 1597 
C 2214 1967 2669 2402 2669 3035 
C 2669 3790 2067 4224 1395 4224 
C 691 4224 262 3604 262 3030 
C 262 2780 448 2748 525 2748 
C 589 2748 781 2787 781 3010 
C 781 3207 614 3264 525 3264 
C 486 3264 448 3258 422 3245 
C 544 3790 915 4058 1306 4058 
C 1862 4058 2227 3617 2227 3035 
C 2227 2479 1901 2000 1536 1584 
L 262 146 
L 262 0 
L 2515 0 
L 2669 989 
z
" transform="scale(0.015625)"/>
       </defs>
       <use xlink:href="#CMSY10-0" transform="scale(0.996264)"/>
       <use xlink:href="#CMR17-32" transform="translate(77.487468 0) scale(0.996264)"/>
      </g>
     </g>
    </g>
    <g id="xtick_3">
     <g id="line2d_5">
      <g>
       <use xlink:href="#m097b91765d" x="149.358483" y="239.66218" style="stroke: #000000; stroke-width: 0.5"/>
      </g>
     </g>
     <g id="line2d_6">
      <g>
       <use xlink:href="#m5c062736d7" x="149.358483" y="17.90218" style="stroke: #000000; stroke-width: 0.5"/>
      </g>
     </g>
     <g id="text_3">
      <!-- $\mathdefault{−1}$ -->
      <g transform="translate(142.993443 250.080678) scale(0.1 -0.1)">
       <defs>
        <path id="CMR17-31" d="M 1702 4058 
C 1702 4192 1696 4192 1606 4192 
C 1357 3916 979 3827 621 3827 
C 602 3827 570 3827 563 3808 
C 557 3795 557 3782 557 3648 
C 755 3648 1088 3686 1344 3839 
L 1344 461 
C 1344 236 1331 160 781 160 
L 589 160 
L 589 0 
C 896 0 1216 0 1523 0 
C 1830 0 2150 0 2458 0 
L 2458 160 
L 2266 160 
C 1715 160 1702 230 1702 458 
L 1702 4058 
z
" transform="scale(0.015625)"/>
       </defs>
       <use xlink:href="#CMSY10-0" transform="scale(0.996264)"/>
       <use xlink:href="#CMR17-31" transform="translate(77.487468 0) scale(0.996264)"/>
      </g>
     </g>
    </g>
    <g id="xtick_4">
     <g id="line2d_7">
      <g>
       <use xlink:href="#m097b91765d" x="200.085756" y="239.66218" style="stroke: #000000; stroke-width: 0.5"/>
      </g>
     </g>
     <g id="line2d_8">
      <g>
       <use xlink:href="#m5c062736d7" x="200.085756" y="17.90218" style="stroke: #000000; stroke-width: 0.5"/>
      </g>
     </g>
     <g id="text_4">
      <!-- $\mathdefault{0}$ -->
      <g transform="translate(197.595088 250.080678) scale(0.1 -0.1)">
       <defs>
        <path id="CMR17-30" d="M 2688 2025 
C 2688 2416 2682 3080 2413 3591 
C 2176 4039 1798 4198 1466 4198 
C 1158 4198 768 4058 525 3597 
C 269 3118 243 2524 243 2025 
C 243 1661 250 1106 448 619 
C 723 -39 1216 -128 1466 -128 
C 1760 -128 2208 -7 2470 600 
C 2662 1042 2688 1559 2688 2025 
z
M 1466 -26 
C 1056 -26 813 325 723 812 
C 653 1188 653 1738 653 2096 
C 653 2588 653 2997 736 3387 
C 858 3929 1216 4096 1466 4096 
C 1728 4096 2067 3923 2189 3400 
C 2272 3036 2278 2607 2278 2096 
C 2278 1680 2278 1169 2202 792 
C 2067 95 1690 -26 1466 -26 
z
" transform="scale(0.015625)"/>
       </defs>
       <use xlink:href="#CMR17-30" transform="scale(0.996264)"/>
      </g>
     </g>
    </g>
    <g id="xtick_5">
     <g id="line2d_9">
      <g>
       <use xlink:href="#m097b91765d" x="250.813028" y="239.66218" style="stroke: #000000; stroke-width: 0.5"/>
      </g>
     </g>
     <g id="line2d_10">
      <g>
       <use xlink:href="#m5c062736d7" x="250.813028" y="17.90218" style="stroke: #000000; stroke-width: 0.5"/>
      </g>
     </g>
     <g id="text_5">
      <!-- $\mathdefault{1}$ -->
      <g transform="translate(248.322361 250.080678) scale(0.1 -0.1)">
       <use xlink:href="#CMR17-31" transform="scale(0.996264)"/>
      </g>
     </g>
    </g>
    <g id="xtick_6">
     <g id="line2d_11">
      <g>
       <use xlink:href="#m097b91765d" x="301.540301" y="239.66218" style="stroke: #000000; stroke-width: 0.5"/>
      </g>
     </g>
     <g id="line2d_12">
      <g>
       <use xlink:href="#m5c062736d7" x="301.540301" y="17.90218" style="stroke: #000000; stroke-width: 0.5"/>
      </g>
     </g>
     <g id="text_6">
      <!-- $\mathdefault{2}$ -->
      <g transform="translate(299.049634 250.080678) scale(0.1 -0.1)">
       <use xlink:href="#CMR17-32" transform="scale(0.996264)"/>
      </g>
     </g>
    </g>
    <g id="xtick_7">
     <g id="line2d_13">
      <g>
       <use xlink:href="#m097b91765d" x="352.267574" y="239.66218" style="stroke: #000000; stroke-width: 0.5"/>
      </g>
     </g>
     <g id="line2d_14">
      <g>
       <use xlink:href="#m5c062736d7" x="352.267574" y="17.90218" style="stroke: #000000; stroke-width: 0.5"/>
      </g>
     </g>
     <g id="text_7">
      <!-- $\mathdefault{3}$ -->
      <g transform="translate(349.776906 250.080678) scale(0.1 -0.1)">
       <use xlink:href="#CMR17-33" transform="scale(0.996264)"/>
      </g>
     </g>
    </g>
    <g id="xtick_8">
     <g id="line2d_15">
      <defs>
       <path id="m585b49767e" d="M 0 0 
L 0 -1.5 
" style="stroke: #000000; stroke-width: 0.5"/>
      </defs>
      <g>
       <use xlink:href="#m585b49767e" x="37.758483" y="239.66218" style="stroke: #000000; stroke-width: 0.5"/>
      </g>
     </g>
     <g id="line2d_16">
      <defs>
       <path id="m48f9cc2f8f" d="M 0 0 
L 0 1.5 
" style="stroke: #000000; stroke-width: 0.5"/>
      </defs>
      <g>
       <use xlink:href="#m48f9cc2f8f" x="37.758483" y="17.90218" style="stroke: #000000; stroke-width: 0.5"/>
      </g>
     </g>
    </g>
    <g id="xtick_9">
     <g id="line2d_17">
      <g>
       <use xlink:href="#m585b49767e" x="58.049392" y="239.66218" style="stroke: #000000; stroke-width: 0.5"/>
      </g>
     </g>
     <g id="line2d_18">
      <g>
       <use xlink:href="#m48f9cc2f8f" x="58.049392" y="17.90218" style="stroke: #000000; stroke-width: 0.5"/>
      </g>
     </g>
    </g>
    <g id="xtick_10">
     <g id="line2d_19">
      <g>
       <use xlink:href="#m585b49767e" x="68.194847" y="239.66218" style="stroke: #000000; stroke-width: 0.5"/>
      </g>
     </g>
     <g id="line2d_20">
      <g>
       <use xlink:href="#m48f9cc2f8f" x="68.194847" y="17.90218" style="stroke: #000000; stroke-width: 0.5"/>
      </g>
     </g>
    </g>
    <g id="xtick_11">
     <g id="line2d_21">
      <g>
       <use xlink:href="#m585b49767e" x="78.340301" y="239.66218" style="stroke: #000000; stroke-width: 0.5"/>
      </g>
     </g>
     <g id="line2d_22">
      <g>
       <use xlink:href="#m48f9cc2f8f" x="78.340301" y="17.90218" style="stroke: #000000; stroke-width: 0.5"/>
      </g>
     </g>
    </g>
    <g id="xtick_12">
     <g id="line2d_23">
      <g>
       <use xlink:href="#m585b49767e" x="88.485756" y="239.66218" style="stroke: #000000; stroke-width: 0.5"/>
      </g>
     </g>
     <g id="line2d_24">
      <g>
       <use xlink:href="#m48f9cc2f8f" x="88.485756" y="17.90218" style="stroke: #000000; stroke-width: 0.5"/>
      </g>
     </g>
    </g>
    <g id="xtick_13">
     <g id="line2d_25">
      <g>
       <use xlink:href="#m585b49767e" x="108.776665" y="239.66218" style="stroke: #000000; stroke-width: 0.5"/>
      </g>
     </g>
     <g id="line2d_26">
      <g>
       <use xlink:href="#m48f9cc2f8f" x="108.776665" y="17.90218" style="stroke: #000000; stroke-width: 0.5"/>
      </g>
     </g>
    </g>
    <g id="xtick_14">
     <g id="line2d_27">
      <g>
       <use xlink:href="#m585b49767e" x="118.922119" y="239.66218" style="stroke: #000000; stroke-width: 0.5"/>
      </g>
     </g>
     <g id="line2d_28">
      <g>
       <use xlink:href="#m48f9cc2f8f" x="118.922119" y="17.90218" style="stroke: #000000; stroke-width: 0.5"/>
      </g>
     </g>
    </g>
    <g id="xtick_15">
     <g id="line2d_29">
      <g>
       <use xlink:href="#m585b49767e" x="129.067574" y="239.66218" style="stroke: #000000; stroke-width: 0.5"/>
      </g>
     </g>
     <g id="line2d_30">
      <g>
       <use xlink:href="#m48f9cc2f8f" x="129.067574" y="17.90218" style="stroke: #000000; stroke-width: 0.5"/>
      </g>
     </g>
    </g>
    <g id="xtick_16">
     <g id="line2d_31">
      <g>
       <use xlink:href="#m585b49767e" x="139.213028" y="239.66218" style="stroke: #000000; stroke-width: 0.5"/>
      </g>
     </g>
     <g id="line2d_32">
      <g>
       <use xlink:href="#m48f9cc2f8f" x="139.213028" y="17.90218" style="stroke: #000000; stroke-width: 0.5"/>
      </g>
     </g>
    </g>
    <g id="xtick_17">
     <g id="line2d_33">
      <g>
       <use xlink:href="#m585b49767e" x="159.503938" y="239.66218" style="stroke: #000000; stroke-width: 0.5"/>
      </g>
     </g>
     <g id="line2d_34">
      <g>
       <use xlink:href="#m48f9cc2f8f" x="159.503938" y="17.90218" style="stroke: #000000; stroke-width: 0.5"/>
      </g>
     </g>
    </g>
    <g id="xtick_18">
     <g id="line2d_35">
      <g>
       <use xlink:href="#m585b49767e" x="169.649392" y="239.66218" style="stroke: #000000; stroke-width: 0.5"/>
      </g>
     </g>
     <g id="line2d_36">
      <g>
       <use xlink:href="#m48f9cc2f8f" x="169.649392" y="17.90218" style="stroke: #000000; stroke-width: 0.5"/>
      </g>
     </g>
    </g>
    <g id="xtick_19">
     <g id="line2d_37">
      <g>
       <use xlink:href="#m585b49767e" x="179.794847" y="239.66218" style="stroke: #000000; stroke-width: 0.5"/>
      </g>
     </g>
     <g id="line2d_38">
      <g>
       <use xlink:href="#m48f9cc2f8f" x="179.794847" y="17.90218" style="stroke: #000000; stroke-width: 0.5"/>
      </g>
     </g>
    </g>
    <g id="xtick_20">
     <g id="line2d_39">
      <g>
       <use xlink:href="#m585b49767e" x="189.940301" y="239.66218" style="stroke: #000000; stroke-width: 0.5"/>
      </g>
     </g>
     <g id="line2d_40">
      <g>
       <use xlink:href="#m48f9cc2f8f" x="189.940301" y="17.90218" style="stroke: #000000; stroke-width: 0.5"/>
      </g>
     </g>
    </g>
    <g id="xtick_21">
     <g id="line2d_41">
      <g>
       <use xlink:href="#m585b49767e" x="210.23121" y="239.66218" style="stroke: #000000; stroke-width: 0.5"/>
      </g>
     </g>
     <g id="line2d_42">
      <g>
       <use xlink:href="#m48f9cc2f8f" x="210.23121" y="17.90218" style="stroke: #000000; stroke-width: 0.5"/>
      </g>
     </g>
    </g>
    <g id="xtick_22">
     <g id="line2d_43">
      <g>
       <use xlink:href="#m585b49767e" x="220.376665" y="239.66218" style="stroke: #000000; stroke-width: 0.5"/>
      </g>
     </g>
     <g id="line2d_44">
      <g>
       <use xlink:href="#m48f9cc2f8f" x="220.376665" y="17.90218" style="stroke: #000000; stroke-width: 0.5"/>
      </g>
     </g>
    </g>
    <g id="xtick_23">
     <g id="line2d_45">
      <g>
       <use xlink:href="#m585b49767e" x="230.522119" y="239.66218" style="stroke: #000000; stroke-width: 0.5"/>
      </g>
     </g>
     <g id="line2d_46">
      <g>
       <use xlink:href="#m48f9cc2f8f" x="230.522119" y="17.90218" style="stroke: #000000; stroke-width: 0.5"/>
      </g>
     </g>
    </g>
    <g id="xtick_24">
     <g id="line2d_47">
      <g>
       <use xlink:href="#m585b49767e" x="240.667574" y="239.66218" style="stroke: #000000; stroke-width: 0.5"/>
      </g>
     </g>
     <g id="line2d_48">
      <g>
       <use xlink:href="#m48f9cc2f8f" x="240.667574" y="17.90218" style="stroke: #000000; stroke-width: 0.5"/>
      </g>
     </g>
    </g>
    <g id="xtick_25">
     <g id="line2d_49">
      <g>
       <use xlink:href="#m585b49767e" x="260.958483" y="239.66218" style="stroke: #000000; stroke-width: 0.5"/>
      </g>
     </g>
     <g id="line2d_50">
      <g>
       <use xlink:href="#m48f9cc2f8f" x="260.958483" y="17.90218" style="stroke: #000000; stroke-width: 0.5"/>
      </g>
     </g>
    </g>
    <g id="xtick_26">
     <g id="line2d_51">
      <g>
       <use xlink:href="#m585b49767e" x="271.103938" y="239.66218" style="stroke: #000000; stroke-width: 0.5"/>
      </g>
     </g>
     <g id="line2d_52">
      <g>
       <use xlink:href="#m48f9cc2f8f" x="271.103938" y="17.90218" style="stroke: #000000; stroke-width: 0.5"/>
      </g>
     </g>
    </g>
    <g id="xtick_27">
     <g id="line2d_53">
      <g>
       <use xlink:href="#m585b49767e" x="281.249392" y="239.66218" style="stroke: #000000; stroke-width: 0.5"/>
      </g>
     </g>
     <g id="line2d_54">
      <g>
       <use xlink:href="#m48f9cc2f8f" x="281.249392" y="17.90218" style="stroke: #000000; stroke-width: 0.5"/>
      </g>
     </g>
    </g>
    <g id="xtick_28">
     <g id="line2d_55">
      <g>
       <use xlink:href="#m585b49767e" x="291.394847" y="239.66218" style="stroke: #000000; stroke-width: 0.5"/>
      </g>
     </g>
     <g id="line2d_56">
      <g>
       <use xlink:href="#m48f9cc2f8f" x="291.394847" y="17.90218" style="stroke: #000000; stroke-width: 0.5"/>
      </g>
     </g>
    </g>
    <g id="xtick_29">
     <g id="line2d_57">
      <g>
       <use xlink:href="#m585b49767e" x="311.685756" y="239.66218" style="stroke: #000000; stroke-width: 0.5"/>
      </g>
     </g>
     <g id="line2d_58">
      <g>
       <use xlink:href="#m48f9cc2f8f" x="311.685756" y="17.90218" style="stroke: #000000; stroke-width: 0.5"/>
      </g>
     </g>
    </g>
    <g id="xtick_30">
     <g id="line2d_59">
      <g>
       <use xlink:href="#m585b49767e" x="321.83121" y="239.66218" style="stroke: #000000; stroke-width: 0.5"/>
      </g>
     </g>
     <g id="line2d_60">
      <g>
       <use xlink:href="#m48f9cc2f8f" x="321.83121" y="17.90218" style="stroke: #000000; stroke-width: 0.5"/>
      </g>
     </g>
    </g>
    <g id="xtick_31">
     <g id="line2d_61">
      <g>
       <use xlink:href="#m585b49767e" x="331.976665" y="239.66218" style="stroke: #000000; stroke-width: 0.5"/>
      </g>
     </g>
     <g id="line2d_62">
      <g>
       <use xlink:href="#m48f9cc2f8f" x="331.976665" y="17.90218" style="stroke: #000000; stroke-width: 0.5"/>
      </g>
     </g>
    </g>
    <g id="xtick_32">
     <g id="line2d_63">
      <g>
       <use xlink:href="#m585b49767e" x="342.122119" y="239.66218" style="stroke: #000000; stroke-width: 0.5"/>
      </g>
     </g>
     <g id="line2d_64">
      <g>
       <use xlink:href="#m48f9cc2f8f" x="342.122119" y="17.90218" style="stroke: #000000; stroke-width: 0.5"/>
      </g>
     </g>
    </g>
    <g id="xtick_33">
     <g id="line2d_65">
      <g>
       <use xlink:href="#m585b49767e" x="362.413028" y="239.66218" style="stroke: #000000; stroke-width: 0.5"/>
      </g>
     </g>
     <g id="line2d_66">
      <g>
       <use xlink:href="#m48f9cc2f8f" x="362.413028" y="17.90218" style="stroke: #000000; stroke-width: 0.5"/>
      </g>
     </g>
    </g>
    <g id="text_8">
     <!-- $x$ -->
     <g transform="translate(197.238796 262.936355) scale(0.1 -0.1)">
      <defs>
       <path id="CMMI12-78" d="M 3034 2606 
C 2829 2567 2752 2414 2752 2293 
C 2752 2139 2874 2088 2963 2088 
C 3155 2088 3290 2254 3290 2427 
C 3290 2695 2982 2816 2714 2816 
C 2323 2816 2106 2433 2048 2312 
C 1901 2816 1504 2816 1389 2816 
C 736 2816 390 1980 390 1839 
C 390 1814 416 1782 461 1782 
C 512 1782 525 1820 538 1846 
C 755 2555 1184 2689 1370 2689 
C 1658 2689 1715 2420 1715 2267 
C 1715 2127 1677 1980 1600 1673 
L 1382 798 
C 1286 415 1101 64 762 64 
C 730 64 570 64 435 147 
C 666 192 717 383 717 460 
C 717 588 621 664 499 664 
C 346 664 179 530 179 326 
C 179 57 480 -64 755 -64 
C 1062 -64 1280 179 1414 441 
C 1517 64 1837 -64 2074 -64 
C 2726 -64 3072 773 3072 913 
C 3072 945 3046 971 3008 971 
C 2950 971 2944 939 2925 888 
C 2752 326 2381 64 2093 64 
C 1869 64 1747 230 1747 492 
C 1747 632 1773 734 1875 1156 
L 2099 2024 
C 2195 2408 2413 2689 2707 2689 
C 2720 2689 2899 2689 3034 2606 
z
" transform="scale(0.015625)"/>
      </defs>
      <use xlink:href="#CMMI12-78" transform="scale(0.996264)"/>
     </g>
    </g>
   </g>
   <g id="matplotlib.axis_2">
    <g id="ytick_1">
     <g id="line2d_67">
      <defs>
       <path id="m7191c9e6f8" d="M 0 0 
L 3 0 
" style="stroke: #000000; stroke-width: 0.5"/>
      </defs>
      <g>
       <use xlink:href="#m7191c9e6f8" x="32.685756" y="229.582244" style="stroke: #000000; stroke-width: 0.5"/>
      </g>
     </g>
     <g id="line2d_68">
      <defs>
       <path id="m20b731b5df" d="M 0 0 
L -3 0 
" style="stroke: #000000; stroke-width: 0.5"/>
      </defs>
      <g>
       <use xlink:href="#m20b731b5df" x="367.485756" y="229.582244" style="stroke: #000000; stroke-width: 0.5"/>
      </g>
     </g>
     <g id="text_9">
      <!-- $\mathdefault{0.0}$ -->
      <g transform="translate(16.455677 233.041494) scale(0.1 -0.1)">
       <defs>
        <path id="CMMI12-3a" d="M 1178 307 
C 1178 492 1024 619 870 619 
C 685 619 557 466 557 313 
C 557 128 710 0 864 0 
C 1050 0 1178 153 1178 307 
z
" transform="scale(0.015625)"/>
       </defs>
       <use xlink:href="#CMR17-30" transform="scale(0.996264)"/>
       <use xlink:href="#CMMI12-3a" transform="translate(45.690477 0) scale(0.996264)"/>
       <use xlink:href="#CMR17-30" transform="translate(72.787654 0) scale(0.996264)"/>
      </g>
     </g>
    </g>
    <g id="ytick_2">
     <g id="line2d_69">
      <g>
       <use xlink:href="#m7191c9e6f8" x="32.685756" y="197.296201" style="stroke: #000000; stroke-width: 0.5"/>
      </g>
     </g>
     <g id="line2d_70">
      <g>
       <use xlink:href="#m20b731b5df" x="367.485756" y="197.296201" style="stroke: #000000; stroke-width: 0.5"/>
      </g>
     </g>
     <g id="text_10">
      <!-- $\mathdefault{0.1}$ -->
      <g transform="translate(16.455677 200.75545) scale(0.1 -0.1)">
       <use xlink:href="#CMR17-30" transform="scale(0.996264)"/>
       <use xlink:href="#CMMI12-3a" transform="translate(45.690477 0) scale(0.996264)"/>
       <use xlink:href="#CMR17-31" transform="translate(72.787654 0) scale(0.996264)"/>
      </g>
     </g>
    </g>
    <g id="ytick_3">
     <g id="line2d_71">
      <g>
       <use xlink:href="#m7191c9e6f8" x="32.685756" y="165.010158" style="stroke: #000000; stroke-width: 0.5"/>
      </g>
     </g>
     <g id="line2d_72">
      <g>
       <use xlink:href="#m20b731b5df" x="367.485756" y="165.010158" style="stroke: #000000; stroke-width: 0.5"/>
      </g>
     </g>
     <g id="text_11">
      <!-- $\mathdefault{0.2}$ -->
      <g transform="translate(16.455677 168.469407) scale(0.1 -0.1)">
       <use xlink:href="#CMR17-30" transform="scale(0.996264)"/>
       <use xlink:href="#CMMI12-3a" transform="translate(45.690477 0) scale(0.996264)"/>
       <use xlink:href="#CMR17-32" transform="translate(72.787654 0) scale(0.996264)"/>
      </g>
     </g>
    </g>
    <g id="ytick_4">
     <g id="line2d_73">
      <g>
       <use xlink:href="#m7191c9e6f8" x="32.685756" y="132.724115" style="stroke: #000000; stroke-width: 0.5"/>
      </g>
     </g>
     <g id="line2d_74">
      <g>
       <use xlink:href="#m20b731b5df" x="367.485756" y="132.724115" style="stroke: #000000; stroke-width: 0.5"/>
      </g>
     </g>
     <g id="text_12">
      <!-- $\mathdefault{0.3}$ -->
      <g transform="translate(16.455677 136.183364) scale(0.1 -0.1)">
       <use xlink:href="#CMR17-30" transform="scale(0.996264)"/>
       <use xlink:href="#CMMI12-3a" transform="translate(45.690477 0) scale(0.996264)"/>
       <use xlink:href="#CMR17-33" transform="translate(72.787654 0) scale(0.996264)"/>
      </g>
     </g>
    </g>
    <g id="ytick_5">
     <g id="line2d_75">
      <g>
       <use xlink:href="#m7191c9e6f8" x="32.685756" y="100.438071" style="stroke: #000000; stroke-width: 0.5"/>
      </g>
     </g>
     <g id="line2d_76">
      <g>
       <use xlink:href="#m20b731b5df" x="367.485756" y="100.438071" style="stroke: #000000; stroke-width: 0.5"/>
      </g>
     </g>
     <g id="text_13">
      <!-- $\mathdefault{0.4}$ -->
      <g transform="translate(16.455677 103.897321) scale(0.1 -0.1)">
       <defs>
        <path id="CMR17-34" d="M 2150 4122 
C 2150 4256 2144 4256 2029 4256 
L 128 1254 
L 128 1088 
L 1779 1088 
L 1779 457 
C 1779 224 1766 160 1318 160 
L 1197 160 
L 1197 0 
C 1402 0 1747 0 1965 0 
C 2182 0 2528 0 2733 0 
L 2733 160 
L 2611 160 
C 2163 160 2150 224 2150 457 
L 2150 1088 
L 2803 1088 
L 2803 1254 
L 2150 1254 
L 2150 4122 
z
M 1798 3703 
L 1798 1254 
L 256 1254 
L 1798 3703 
z
" transform="scale(0.015625)"/>
       </defs>
       <use xlink:href="#CMR17-30" transform="scale(0.996264)"/>
       <use xlink:href="#CMMI12-3a" transform="translate(45.690477 0) scale(0.996264)"/>
       <use xlink:href="#CMR17-34" transform="translate(72.787654 0) scale(0.996264)"/>
      </g>
     </g>
    </g>
    <g id="ytick_6">
     <g id="line2d_77">
      <g>
       <use xlink:href="#m7191c9e6f8" x="32.685756" y="68.152028" style="stroke: #000000; stroke-width: 0.5"/>
      </g>
     </g>
     <g id="line2d_78">
      <g>
       <use xlink:href="#m20b731b5df" x="367.485756" y="68.152028" style="stroke: #000000; stroke-width: 0.5"/>
      </g>
     </g>
     <g id="text_14">
      <!-- $\mathdefault{0.5}$ -->
      <g transform="translate(16.455677 71.611277) scale(0.1 -0.1)">
       <defs>
        <path id="CMR17-35" d="M 730 3692 
C 794 3666 1056 3584 1325 3584 
C 1920 3584 2246 3911 2432 4100 
C 2432 4157 2432 4192 2394 4192 
C 2387 4192 2374 4192 2323 4163 
C 2099 4058 1837 3973 1517 3973 
C 1325 3973 1037 3999 723 4139 
C 653 4171 640 4171 634 4171 
C 602 4171 595 4164 595 4037 
L 595 2203 
C 595 2089 595 2057 659 2057 
C 691 2057 704 2070 736 2114 
C 941 2401 1222 2522 1542 2522 
C 1766 2522 2246 2382 2246 1289 
C 2246 1085 2246 715 2054 421 
C 1894 159 1645 25 1370 25 
C 947 25 518 320 403 814 
C 429 807 480 795 506 795 
C 589 795 749 840 749 1038 
C 749 1210 627 1280 506 1280 
C 358 1280 262 1190 262 1011 
C 262 454 704 -128 1382 -128 
C 2042 -128 2669 440 2669 1264 
C 2669 2030 2170 2624 1549 2624 
C 1222 2624 947 2503 730 2274 
L 730 3692 
z
" transform="scale(0.015625)"/>
       </defs>
       <use xlink:href="#CMR17-30" transform="scale(0.996264)"/>
       <use xlink:href="#CMMI12-3a" transform="translate(45.690477 0) scale(0.996264)"/>
       <use xlink:href="#CMR17-35" transform="translate(72.787654 0) scale(0.996264)"/>
      </g>
     </g>
    </g>
    <g id="ytick_7">
     <g id="line2d_79">
      <g>
       <use xlink:href="#m7191c9e6f8" x="32.685756" y="35.865985" style="stroke: #000000; stroke-width: 0.5"/>
      </g>
     </g>
     <g id="line2d_80">
      <g>
       <use xlink:href="#m20b731b5df" x="367.485756" y="35.865985" style="stroke: #000000; stroke-width: 0.5"/>
      </g>
     </g>
     <g id="text_15">
      <!-- $\mathdefault{0.6}$ -->
      <g transform="translate(16.455677 39.325234) scale(0.1 -0.1)">
       <defs>
        <path id="CMR17-36" d="M 678 2176 
C 678 3690 1395 4032 1811 4032 
C 1946 4032 2272 4009 2400 3776 
C 2298 3776 2106 3776 2106 3553 
C 2106 3381 2246 3323 2336 3323 
C 2394 3323 2566 3348 2566 3560 
C 2566 3954 2246 4179 1805 4179 
C 1043 4179 243 3390 243 1984 
C 243 253 966 -128 1478 -128 
C 2099 -128 2688 427 2688 1283 
C 2688 2081 2170 2662 1517 2662 
C 1126 2662 838 2407 678 1960 
L 678 2176 
z
M 1478 25 
C 691 25 691 1200 691 1436 
C 691 1896 909 2560 1504 2560 
C 1613 2560 1926 2560 2138 2120 
C 2253 1870 2253 1609 2253 1289 
C 2253 944 2253 690 2118 434 
C 1978 171 1773 25 1478 25 
z
" transform="scale(0.015625)"/>
       </defs>
       <use xlink:href="#CMR17-30" transform="scale(0.996264)"/>
       <use xlink:href="#CMMI12-3a" transform="translate(45.690477 0) scale(0.996264)"/>
       <use xlink:href="#CMR17-36" transform="translate(72.787654 0) scale(0.996264)"/>
      </g>
     </g>
    </g>
    <g id="ytick_8">
     <g id="line2d_81">
      <defs>
       <path id="m9caa149e5e" d="M 0 0 
L 1.5 0 
" style="stroke: #000000; stroke-width: 0.5"/>
      </defs>
      <g>
       <use xlink:href="#m9caa149e5e" x="32.685756" y="236.039453" style="stroke: #000000; stroke-width: 0.5"/>
      </g>
     </g>
     <g id="line2d_82">
      <defs>
       <path id="mf80a77f5ac" d="M 0 0 
L -1.5 0 
" style="stroke: #000000; stroke-width: 0.5"/>
      </defs>
      <g>
       <use xlink:href="#mf80a77f5ac" x="367.485756" y="236.039453" style="stroke: #000000; stroke-width: 0.5"/>
      </g>
     </g>
    </g>
    <g id="ytick_9">
     <g id="line2d_83">
      <g>
       <use xlink:href="#m9caa149e5e" x="32.685756" y="223.125036" style="stroke: #000000; stroke-width: 0.5"/>
      </g>
     </g>
     <g id="line2d_84">
      <g>
       <use xlink:href="#mf80a77f5ac" x="367.485756" y="223.125036" style="stroke: #000000; stroke-width: 0.5"/>
      </g>
     </g>
    </g>
    <g id="ytick_10">
     <g id="line2d_85">
      <g>
       <use xlink:href="#m9caa149e5e" x="32.685756" y="216.667827" style="stroke: #000000; stroke-width: 0.5"/>
      </g>
     </g>
     <g id="line2d_86">
      <g>
       <use xlink:href="#mf80a77f5ac" x="367.485756" y="216.667827" style="stroke: #000000; stroke-width: 0.5"/>
      </g>
     </g>
    </g>
    <g id="ytick_11">
     <g id="line2d_87">
      <g>
       <use xlink:href="#m9caa149e5e" x="32.685756" y="210.210618" style="stroke: #000000; stroke-width: 0.5"/>
      </g>
     </g>
     <g id="line2d_88">
      <g>
       <use xlink:href="#mf80a77f5ac" x="367.485756" y="210.210618" style="stroke: #000000; stroke-width: 0.5"/>
      </g>
     </g>
    </g>
    <g id="ytick_12">
     <g id="line2d_89">
      <g>
       <use xlink:href="#m9caa149e5e" x="32.685756" y="203.75341" style="stroke: #000000; stroke-width: 0.5"/>
      </g>
     </g>
     <g id="line2d_90">
      <g>
       <use xlink:href="#mf80a77f5ac" x="367.485756" y="203.75341" style="stroke: #000000; stroke-width: 0.5"/>
      </g>
     </g>
    </g>
    <g id="ytick_13">
     <g id="line2d_91">
      <g>
       <use xlink:href="#m9caa149e5e" x="32.685756" y="190.838992" style="stroke: #000000; stroke-width: 0.5"/>
      </g>
     </g>
     <g id="line2d_92">
      <g>
       <use xlink:href="#mf80a77f5ac" x="367.485756" y="190.838992" style="stroke: #000000; stroke-width: 0.5"/>
      </g>
     </g>
    </g>
    <g id="ytick_14">
     <g id="line2d_93">
      <g>
       <use xlink:href="#m9caa149e5e" x="32.685756" y="184.381784" style="stroke: #000000; stroke-width: 0.5"/>
      </g>
     </g>
     <g id="line2d_94">
      <g>
       <use xlink:href="#mf80a77f5ac" x="367.485756" y="184.381784" style="stroke: #000000; stroke-width: 0.5"/>
      </g>
     </g>
    </g>
    <g id="ytick_15">
     <g id="line2d_95">
      <g>
       <use xlink:href="#m9caa149e5e" x="32.685756" y="177.924575" style="stroke: #000000; stroke-width: 0.5"/>
      </g>
     </g>
     <g id="line2d_96">
      <g>
       <use xlink:href="#mf80a77f5ac" x="367.485756" y="177.924575" style="stroke: #000000; stroke-width: 0.5"/>
      </g>
     </g>
    </g>
    <g id="ytick_16">
     <g id="line2d_97">
      <g>
       <use xlink:href="#m9caa149e5e" x="32.685756" y="171.467367" style="stroke: #000000; stroke-width: 0.5"/>
      </g>
     </g>
     <g id="line2d_98">
      <g>
       <use xlink:href="#mf80a77f5ac" x="367.485756" y="171.467367" style="stroke: #000000; stroke-width: 0.5"/>
      </g>
     </g>
    </g>
    <g id="ytick_17">
     <g id="line2d_99">
      <g>
       <use xlink:href="#m9caa149e5e" x="32.685756" y="158.552949" style="stroke: #000000; stroke-width: 0.5"/>
      </g>
     </g>
     <g id="line2d_100">
      <g>
       <use xlink:href="#mf80a77f5ac" x="367.485756" y="158.552949" style="stroke: #000000; stroke-width: 0.5"/>
      </g>
     </g>
    </g>
    <g id="ytick_18">
     <g id="line2d_101">
      <g>
       <use xlink:href="#m9caa149e5e" x="32.685756" y="152.095741" style="stroke: #000000; stroke-width: 0.5"/>
      </g>
     </g>
     <g id="line2d_102">
      <g>
       <use xlink:href="#mf80a77f5ac" x="367.485756" y="152.095741" style="stroke: #000000; stroke-width: 0.5"/>
      </g>
     </g>
    </g>
    <g id="ytick_19">
     <g id="line2d_103">
      <g>
       <use xlink:href="#m9caa149e5e" x="32.685756" y="145.638532" style="stroke: #000000; stroke-width: 0.5"/>
      </g>
     </g>
     <g id="line2d_104">
      <g>
       <use xlink:href="#mf80a77f5ac" x="367.485756" y="145.638532" style="stroke: #000000; stroke-width: 0.5"/>
      </g>
     </g>
    </g>
    <g id="ytick_20">
     <g id="line2d_105">
      <g>
       <use xlink:href="#m9caa149e5e" x="32.685756" y="139.181323" style="stroke: #000000; stroke-width: 0.5"/>
      </g>
     </g>
     <g id="line2d_106">
      <g>
       <use xlink:href="#mf80a77f5ac" x="367.485756" y="139.181323" style="stroke: #000000; stroke-width: 0.5"/>
      </g>
     </g>
    </g>
    <g id="ytick_21">
     <g id="line2d_107">
      <g>
       <use xlink:href="#m9caa149e5e" x="32.685756" y="126.266906" style="stroke: #000000; stroke-width: 0.5"/>
      </g>
     </g>
     <g id="line2d_108">
      <g>
       <use xlink:href="#mf80a77f5ac" x="367.485756" y="126.266906" style="stroke: #000000; stroke-width: 0.5"/>
      </g>
     </g>
    </g>
    <g id="ytick_22">
     <g id="line2d_109">
      <g>
       <use xlink:href="#m9caa149e5e" x="32.685756" y="119.809697" style="stroke: #000000; stroke-width: 0.5"/>
      </g>
     </g>
     <g id="line2d_110">
      <g>
       <use xlink:href="#mf80a77f5ac" x="367.485756" y="119.809697" style="stroke: #000000; stroke-width: 0.5"/>
      </g>
     </g>
    </g>
    <g id="ytick_23">
     <g id="line2d_111">
      <g>
       <use xlink:href="#m9caa149e5e" x="32.685756" y="113.352489" style="stroke: #000000; stroke-width: 0.5"/>
      </g>
     </g>
     <g id="line2d_112">
      <g>
       <use xlink:href="#mf80a77f5ac" x="367.485756" y="113.352489" style="stroke: #000000; stroke-width: 0.5"/>
      </g>
     </g>
    </g>
    <g id="ytick_24">
     <g id="line2d_113">
      <g>
       <use xlink:href="#m9caa149e5e" x="32.685756" y="106.89528" style="stroke: #000000; stroke-width: 0.5"/>
      </g>
     </g>
     <g id="line2d_114">
      <g>
       <use xlink:href="#mf80a77f5ac" x="367.485756" y="106.89528" style="stroke: #000000; stroke-width: 0.5"/>
      </g>
     </g>
    </g>
    <g id="ytick_25">
     <g id="line2d_115">
      <g>
       <use xlink:href="#m9caa149e5e" x="32.685756" y="93.980863" style="stroke: #000000; stroke-width: 0.5"/>
      </g>
     </g>
     <g id="line2d_116">
      <g>
       <use xlink:href="#mf80a77f5ac" x="367.485756" y="93.980863" style="stroke: #000000; stroke-width: 0.5"/>
      </g>
     </g>
    </g>
    <g id="ytick_26">
     <g id="line2d_117">
      <g>
       <use xlink:href="#m9caa149e5e" x="32.685756" y="87.523654" style="stroke: #000000; stroke-width: 0.5"/>
      </g>
     </g>
     <g id="line2d_118">
      <g>
       <use xlink:href="#mf80a77f5ac" x="367.485756" y="87.523654" style="stroke: #000000; stroke-width: 0.5"/>
      </g>
     </g>
    </g>
    <g id="ytick_27">
     <g id="line2d_119">
      <g>
       <use xlink:href="#m9caa149e5e" x="32.685756" y="81.066445" style="stroke: #000000; stroke-width: 0.5"/>
      </g>
     </g>
     <g id="line2d_120">
      <g>
       <use xlink:href="#mf80a77f5ac" x="367.485756" y="81.066445" style="stroke: #000000; stroke-width: 0.5"/>
      </g>
     </g>
    </g>
    <g id="ytick_28">
     <g id="line2d_121">
      <g>
       <use xlink:href="#m9caa149e5e" x="32.685756" y="74.609237" style="stroke: #000000; stroke-width: 0.5"/>
      </g>
     </g>
     <g id="line2d_122">
      <g>
       <use xlink:href="#mf80a77f5ac" x="367.485756" y="74.609237" style="stroke: #000000; stroke-width: 0.5"/>
      </g>
     </g>
    </g>
    <g id="ytick_29">
     <g id="line2d_123">
      <g>
       <use xlink:href="#m9caa149e5e" x="32.685756" y="61.694819" style="stroke: #000000; stroke-width: 0.5"/>
      </g>
     </g>
     <g id="line2d_124">
      <g>
       <use xlink:href="#mf80a77f5ac" x="367.485756" y="61.694819" style="stroke: #000000; stroke-width: 0.5"/>
      </g>
     </g>
    </g>
    <g id="ytick_30">
     <g id="line2d_125">
      <g>
       <use xlink:href="#m9caa149e5e" x="32.685756" y="55.237611" style="stroke: #000000; stroke-width: 0.5"/>
      </g>
     </g>
     <g id="line2d_126">
      <g>
       <use xlink:href="#mf80a77f5ac" x="367.485756" y="55.237611" style="stroke: #000000; stroke-width: 0.5"/>
      </g>
     </g>
    </g>
    <g id="ytick_31">
     <g id="line2d_127">
      <g>
       <use xlink:href="#m9caa149e5e" x="32.685756" y="48.780402" style="stroke: #000000; stroke-width: 0.5"/>
      </g>
     </g>
     <g id="line2d_128">
      <g>
       <use xlink:href="#mf80a77f5ac" x="367.485756" y="48.780402" style="stroke: #000000; stroke-width: 0.5"/>
      </g>
     </g>
    </g>
    <g id="ytick_32">
     <g id="line2d_129">
      <g>
       <use xlink:href="#m9caa149e5e" x="32.685756" y="42.323193" style="stroke: #000000; stroke-width: 0.5"/>
      </g>
     </g>
     <g id="line2d_130">
      <g>
       <use xlink:href="#mf80a77f5ac" x="367.485756" y="42.323193" style="stroke: #000000; stroke-width: 0.5"/>
      </g>
     </g>
    </g>
    <g id="ytick_33">
     <g id="line2d_131">
      <g>
       <use xlink:href="#m9caa149e5e" x="32.685756" y="29.408776" style="stroke: #000000; stroke-width: 0.5"/>
      </g>
     </g>
     <g id="line2d_132">
      <g>
       <use xlink:href="#mf80a77f5ac" x="367.485756" y="29.408776" style="stroke: #000000; stroke-width: 0.5"/>
      </g>
     </g>
    </g>
    <g id="ytick_34">
     <g id="line2d_133">
      <g>
       <use xlink:href="#m9caa149e5e" x="32.685756" y="22.951568" style="stroke: #000000; stroke-width: 0.5"/>
      </g>
     </g>
     <g id="line2d_134">
      <g>
       <use xlink:href="#mf80a77f5ac" x="367.485756" y="22.951568" style="stroke: #000000; stroke-width: 0.5"/>
      </g>
     </g>
    </g>
    <g id="text_16">
     <!-- Density -->
     <g transform="translate(10.518498 145.345099) rotate(-90) scale(0.1 -0.1)">
      <defs>
       <path id="CMR17-44" d="M 333 4352 
L 333 4186 
C 774 4186 845 4186 845 3900 
L 845 452 
C 845 166 774 166 333 166 
L 333 0 
L 2368 0 
C 3398 0 4224 943 4224 2141 
C 4224 3346 3411 4352 2368 4352 
L 333 4352 
z
M 1523 166 
C 1267 166 1254 197 1254 414 
L 1254 3938 
C 1254 4155 1267 4186 1523 4186 
L 2240 4186 
C 2771 4186 3750 3874 3750 2141 
C 3750 1242 3488 879 3366 707 
C 3213 510 2848 166 2240 166 
L 1523 166 
z
" transform="scale(0.015625)"/>
       <path id="CMR17-65" d="M 2438 1472 
C 2464 1498 2464 1511 2464 1576 
C 2464 2238 2118 2816 1389 2816 
C 710 2816 173 2169 173 1383 
C 173 551 781 -64 1459 -64 
C 2176 -64 2458 607 2458 740 
C 2458 784 2419 784 2406 784 
C 2362 784 2355 771 2330 696 
C 2189 265 1837 51 1504 51 
C 1229 51 954 203 781 480 
C 582 803 582 1176 582 1472 
L 2438 1472 
z
M 589 1568 
C 634 2505 1126 2714 1382 2714 
C 1818 2714 2112 2297 2118 1568 
L 589 1568 
z
" transform="scale(0.015625)"/>
       <path id="CMR17-6e" d="M 2656 1933 
C 2656 2259 2592 2790 1837 2790 
C 1331 2790 1069 2400 973 2144 
L 966 2144 
L 966 2790 
L 211 2720 
L 211 2554 
C 589 2554 646 2515 646 2208 
L 646 428 
C 646 184 621 153 211 153 
L 211 -13 
C 365 0 646 0 813 0 
C 979 0 1267 0 1421 -13 
L 1421 153 
C 1011 153 986 178 986 428 
L 986 1658 
C 986 2247 1344 2688 1792 2688 
C 2266 2688 2317 2266 2317 1958 
L 2317 428 
C 2317 184 2291 153 1882 153 
L 1882 -13 
C 2035 0 2317 0 2483 0 
C 2650 0 2938 0 3091 -13 
L 3091 153 
C 2682 153 2656 178 2656 428 
L 2656 1933 
z
" transform="scale(0.015625)"/>
       <path id="CMR17-73" d="M 1978 2697 
C 1978 2813 1971 2819 1933 2819 
C 1907 2819 1901 2813 1824 2717 
C 1805 2691 1747 2626 1728 2601 
C 1523 2819 1235 2819 1126 2819 
C 416 2819 160 2447 160 2076 
C 160 1498 813 1365 998 1325 
C 1402 1243 1542 1217 1677 1101 
C 1760 1025 1901 884 1901 654 
C 1901 384 1747 38 1158 38 
C 602 38 403 460 288 1021 
C 269 1110 269 1117 218 1117 
C 166 1117 160 1110 160 983 
L 160 63 
C 160 -51 166 -58 205 -58 
C 237 -58 243 -51 275 0 
C 314 57 410 211 448 276 
C 576 103 800 -64 1158 -64 
C 1792 -64 2131 283 2131 784 
C 2131 1112 1958 1285 1875 1362 
C 1683 1561 1459 1606 1190 1657 
C 838 1735 390 1825 390 2217 
C 390 2383 480 2737 1126 2737 
C 1811 2737 1850 2094 1862 1888 
C 1869 1856 1901 1849 1920 1849 
C 1978 1849 1978 1869 1978 1978 
L 1978 2697 
z
" transform="scale(0.015625)"/>
       <path id="CMR17-69" d="M 992 3909 
C 992 4049 877 4170 730 4170 
C 589 4170 467 4056 467 3909 
C 467 3769 582 3648 730 3648 
C 870 3648 992 3763 992 3909 
z
M 243 2706 
L 243 2541 
C 602 2541 653 2502 653 2197 
L 653 427 
C 653 184 627 153 218 153 
L 218 -13 
C 371 0 646 0 806 0 
C 960 0 1222 0 1370 -13 
L 1370 153 
C 992 153 979 191 979 420 
L 979 2776 
L 243 2706 
z
" transform="scale(0.015625)"/>
       <path id="CMR17-74" d="M 966 2560 
L 1862 2560 
L 1862 2725 
L 966 2725 
L 966 3904 
L 851 3904 
C 838 3245 614 2668 70 2668 
L 70 2560 
L 627 2560 
L 627 771 
C 627 650 627 -64 1370 -64 
C 1747 -64 1965 306 1965 777 
L 1965 1140 
L 1850 1140 
L 1850 783 
C 1850 344 1677 51 1408 51 
C 1222 51 966 178 966 758 
L 966 2560 
z
" transform="scale(0.015625)"/>
       <path id="CMR17-79" d="M 2496 2197 
C 2656 2586 2944 2586 3034 2586 
L 3034 2752 
C 2912 2752 2752 2752 2630 2752 
C 2496 2752 2285 2752 2157 2758 
L 2157 2592 
C 2400 2573 2406 2394 2406 2343 
C 2406 2280 2394 2248 2362 2171 
L 1664 449 
L 902 2306 
C 870 2382 870 2426 870 2433 
C 870 2573 1018 2586 1171 2586 
L 1171 2758 
C 1018 2752 742 2752 582 2752 
C 410 2752 205 2752 64 2758 
L 64 2586 
C 410 2586 448 2554 531 2350 
L 1485 15 
C 1197 -738 1030 -1178 627 -1178 
C 557 -1178 397 -1159 282 -1044 
C 429 -1031 493 -942 493 -833 
C 493 -725 416 -629 288 -629 
C 147 -629 77 -725 77 -840 
C 77 -1095 339 -1280 627 -1280 
C 998 -1280 1229 -922 1357 -604 
L 2496 2197 
z
" transform="scale(0.015625)"/>
      </defs>
      <use xlink:href="#CMR17-44" transform="scale(0.996264)"/>
      <use xlink:href="#CMR17-65" transform="translate(70.393556 0) scale(0.996264)"/>
      <use xlink:href="#CMR17-6e" transform="translate(110.879216 0) scale(0.996264)"/>
      <use xlink:href="#CMR17-73" transform="translate(161.774586 0) scale(0.996264)"/>
      <use xlink:href="#CMR17-69" transform="translate(197.575924 0) scale(0.996264)"/>
      <use xlink:href="#CMR17-74" transform="translate(222.446982 0) scale(0.996264)"/>
      <use xlink:href="#CMR17-79" transform="translate(255.125296 0) scale(0.996264)"/>
     </g>
    </g>
   </g>
   <g id="line2d_135">
    <path d="M 47.903938 229.528434 
L 50.704366 229.580888 
L 58.375095 229.487894 
L 59.714432 229.247999 
L 60.749368 228.838781 
L 61.723432 228.207231 
L 62.880122 227.166433 
L 65.071758 225.137605 
L 65.893628 224.707195 
L 66.685056 224.544871 
L 67.567797 224.602863 
L 71.129201 225.094689 
L 75.969071 224.897454 
L 76.851812 224.526694 
L 77.917188 223.812978 
L 79.500045 222.758351 
L 80.200149 222.564254 
L 80.839371 222.614239 
L 81.539487 222.905137 
L 82.696176 223.687039 
L 83.639799 224.21054 
L 84.248591 224.31286 
L 84.826942 224.17855 
L 85.435722 223.797886 
L 86.348904 222.9234 
L 87.444722 221.94868 
L 88.023073 221.72559 
L 88.510111 221.771829 
L 89.027579 222.066533 
L 89.636359 222.694349 
L 90.79306 224.301463 
L 91.675801 225.340371 
L 92.254151 225.707342 
L 92.741178 225.764882 
L 93.228216 225.584367 
L 93.776125 225.123463 
L 94.537112 224.157054 
L 96.211281 221.947313 
L 96.850502 221.502952 
L 97.398412 221.38229 
L 97.976762 221.491423 
L 98.737749 221.889554 
L 100.777185 223.061732 
L 101.994763 223.403451 
L 103.608049 223.639091 
L 104.308159 223.533527 
L 104.886504 223.213615 
L 105.434413 222.639116 
L 106.043205 221.642006 
L 106.77375 219.962398 
L 107.930445 216.629324 
L 109.148023 213.335487 
L 109.878569 211.96938 
L 110.45692 211.312027 
L 111.004829 211.013412 
L 111.583173 210.96563 
L 112.435478 211.161591 
L 113.47042 211.344542 
L 114.109647 211.226131 
L 114.748875 210.873248 
L 115.509862 210.179221 
L 117.03183 208.388487 
L 118.249408 207.152477 
L 120.836752 204.782819 
L 121.658616 203.474322 
L 124.032895 199.391242 
L 124.550363 199.050266 
L 125.006954 199.012942 
L 125.493986 199.218898 
L 126.133214 199.762784 
L 127.807377 201.294982 
L 128.507487 201.580414 
L 129.511987 201.709611 
L 130.638247 201.917239 
L 132.738565 202.470258 
L 133.225592 202.267922 
L 133.712624 201.801835 
L 134.230092 200.960743 
L 134.808442 199.540987 
L 135.44767 197.320311 
L 136.147774 194.039763 
L 136.969638 189.02145 
L 137.974144 181.357496 
L 142.113898 147.881979 
L 143.392353 137.706676 
L 144.396853 127.772307 
L 145.705749 112.285473 
L 147.349477 93.218161 
L 148.140905 86.486626 
L 148.749691 83.051507 
L 149.206282 81.58552 
L 149.541116 81.128043 
L 149.784629 81.11845 
L 150.028146 81.372614 
L 150.36298 82.132579 
L 150.78913 83.733784 
L 151.36748 86.888757 
L 152.158906 92.61975 
L 153.285162 102.583292 
L 154.98977 119.82844 
L 156.877013 138.527672 
L 157.698877 144.520248 
L 158.338105 147.677521 
L 158.855572 149.231252 
L 159.281725 149.899427 
L 159.646998 150.101469 
L 159.981832 150.045729 
L 160.407985 149.728569 
L 161.07765 148.903955 
L 163.604121 145.197319 
L 164.334667 143.693161 
L 164.973894 141.857102 
L 165.613122 139.337266 
L 166.282788 135.778669 
L 167.013336 130.63865 
L 167.804758 123.427074 
L 168.71794 112.894477 
L 169.78332 97.796352 
L 171.396609 71.193472 
L 172.827262 48.872599 
L 173.618685 39.764423 
L 174.197035 35.453232 
L 174.623188 33.757645 
L 174.897141 33.368435 
L 175.079777 33.417238 
L 175.292854 33.784163 
L 175.597248 34.876586 
L 175.992959 37.252795 
L 176.51043 41.844793 
L 177.210536 50.272426 
L 178.245476 65.817425 
L 181.654689 119.010994 
L 182.750507 132.054747 
L 183.633251 140.072136 
L 184.363796 144.799873 
L 184.972584 147.422558 
L 185.490055 148.789448 
L 185.946646 149.422931 
L 186.311918 149.600852 
L 186.677191 149.532131 
L 187.103342 149.190483 
L 187.620813 148.458827 
L 188.229601 147.199915 
L 188.899268 145.268858 
L 189.538495 142.699017 
L 190.147283 139.304167 
L 190.786511 134.39189 
L 191.456178 127.422971 
L 192.217163 117.046742 
L 193.221664 99.912103 
L 195.717695 55.740545 
L 196.569998 45.094852 
L 197.330983 38.208682 
L 197.970211 34.277059 
L 198.457242 32.445552 
L 198.822514 31.790872 
L 199.06603 31.72956 
L 199.279105 31.941379 
L 199.55306 32.602833 
L 199.887894 34.047517 
L 200.314057 36.970659 
L 200.831527 42.237121 
L 201.470755 51.332731 
L 202.262179 66.075198 
L 203.631953 96.676795 
L 204.971286 124.737474 
L 205.79315 137.631538 
L 206.462817 145.011335 
L 207.041166 149.230593 
L 207.589075 151.699913 
L 208.076106 152.97741 
L 208.593576 153.752635 
L 210.237304 155.768769 
L 210.967849 157.362267 
L 212.307183 160.346768 
L 212.733335 160.761928 
L 213.007289 160.773027 
L 213.281244 160.549474 
L 213.616078 159.928442 
L 214.01179 158.678704 
L 214.52926 156.218568 
L 215.198928 151.839273 
L 216.294746 142.938883 
L 220.282308 107.953893 
L 221.134612 96.626414 
L 222.139112 80.051178 
L 224.543825 38.833803 
L 225.183052 32.091212 
L 225.670083 29.072659 
L 226.004918 28.119832 
L 226.217992 27.984951 
L 226.400629 28.152374 
L 226.644145 28.765198 
L 226.978976 30.286627 
L 227.435567 33.482629 
L 228.074795 39.706325 
L 228.987977 51.044283 
L 230.296873 70.321364 
L 232.366753 104.6841 
L 233.980042 129.821079 
L 235.228055 145.817812 
L 236.810906 163.051408 
L 238.241559 176.612911 
L 239.063423 182.569689 
L 239.64177 185.384958 
L 240.067923 186.553255 
L 240.372316 186.869646 
L 240.585391 186.823672 
L 240.828907 186.497279 
L 241.1333 185.678212 
L 241.559452 183.778273 
L 242.076923 180.35168 
L 242.746589 174.296037 
L 243.629332 164.093869 
L 245.029544 144.877137 
L 247.34294 113.329372 
L 248.83447 96.374318 
L 250.691275 77.831972 
L 251.634898 70.227347 
L 252.243684 66.886467 
L 252.669834 65.598525 
L 252.943788 65.305766 
L 253.126425 65.360342 
L 253.339503 65.685315 
L 253.643899 66.646417 
L 254.039607 68.767364 
L 254.55708 72.958328 
L 255.226749 80.462384 
L 256.139931 93.476261 
L 257.692341 119.3303 
L 261.284186 179.913832 
L 262.197367 191.064858 
L 262.927919 197.493697 
L 263.567146 201.275904 
L 264.115056 203.303221 
L 264.602082 204.342122 
L 265.058673 204.82544 
L 265.515264 204.983411 
L 266.093615 204.924253 
L 267.493829 204.701915 
L 268.163492 204.870052 
L 268.894037 205.294839 
L 269.898537 206.166659 
L 271.846661 208.216003 
L 273.459953 210.179545 
L 275.255875 212.775653 
L 276.990921 215.156471 
L 278.178058 216.413554 
L 279.121681 217.116927 
L 279.852227 217.405206 
L 280.430577 217.409877 
L 280.948045 217.200827 
L 281.495954 216.723587 
L 282.10474 215.860231 
L 282.80485 214.446009 
L 283.778909 211.903485 
L 285.544396 207.221984 
L 286.183624 206.150614 
L 286.670656 205.734359 
L 287.035929 205.680062 
L 287.401202 205.855245 
L 287.827351 206.344297 
L 288.344819 207.31596 
L 289.044929 209.156644 
L 290.597338 214.112098 
L 291.601839 216.867618 
L 292.332384 218.28959 
L 292.971611 219.092357 
L 293.580397 219.524173 
L 294.280508 219.741271 
L 297.872353 220.23125 
L 298.572463 220.072067 
L 299.333444 219.655054 
L 301.068489 218.59859 
L 301.616399 218.566321 
L 302.133866 218.752338 
L 302.742658 219.221155 
L 303.716723 220.309865 
L 304.873412 221.512207 
L 305.60397 221.949204 
L 306.334515 222.115006 
L 308.526152 222.391779 
L 309.195815 222.857026 
L 309.956802 223.680325 
L 312.878984 227.184393 
L 313.548647 227.471425 
L 314.18788 227.505502 
L 314.948867 227.309412 
L 316.440388 226.617754 
L 317.688413 226.166933 
L 318.845102 225.99174 
L 320.093116 226.030314 
L 321.280258 226.28858 
L 322.741349 226.86397 
L 324.080687 227.317451 
L 324.932986 227.370296 
L 325.785285 227.192585 
L 326.972428 226.685559 
L 328.677038 225.987744 
L 329.742415 225.801142 
L 330.77735 225.847174 
L 331.751415 226.11006 
L 332.786351 226.62881 
L 334.277883 227.668833 
L 335.921611 228.733863 
L 337.047871 229.193698 
L 338.265442 229.445041 
L 339.878741 229.535712 
L 341.644222 229.425617 
L 342.922677 229.132086 
L 344.079378 228.631515 
L 347.336391 227.024909 
L 348.097378 227.041348 
L 348.888795 227.28819 
L 350.015054 227.90522 
L 351.932743 228.957323 
L 352.267574 229.086209 
L 352.267574 229.086209 
" clip-path="url(#paf17c12146)" style="fill: none; stroke: #0c5da5; stroke-linecap: square"/>
   </g>
   <g id="line2d_136">
    <path d="M 47.903938 228.86681 
L 57.218393 228.361902 
L 65.041329 227.720396 
L 71.890188 226.939326 
L 78.069383 226.013183 
L 83.761553 224.93668 
L 89.08845 223.70433 
L 94.171839 222.299899 
L 99.042139 220.724403 
L 103.790685 218.955411 
L 108.478355 216.971718 
L 113.135583 214.760224 
L 117.853693 212.273474 
L 122.693558 209.469918 
L 127.533422 206.412017 
L 130.577364 204.258505 
L 132.221092 202.836589 
L 133.408228 201.516728 
L 134.382293 200.097251 
L 135.265033 198.40099 
L 136.086897 196.321243 
L 136.878319 193.704947 
L 137.669748 190.315485 
L 138.491612 185.784006 
L 139.343917 179.789034 
L 140.257099 171.699774 
L 141.261599 160.672636 
L 142.418294 145.312253 
L 143.970703 121.377494 
L 146.344976 84.871401 
L 147.319041 73.287766 
L 148.049587 66.942794 
L 148.627931 63.609255 
L 149.084522 62.11648 
L 149.388918 61.696538 
L 149.601993 61.678372 
L 149.815071 61.886534 
L 150.119464 62.572428 
L 150.515175 64.131499 
L 151.002207 67.03809 
L 151.641435 72.362428 
L 152.463299 81.323032 
L 153.619997 96.719151 
L 156.907452 141.918827 
L 157.972832 152.941612 
L 158.886014 160.212748 
L 159.677439 164.835373 
L 160.347105 167.544209 
L 160.895014 168.959671 
L 161.351605 169.599731 
L 161.716878 169.763242 
L 162.021271 169.664429 
L 162.356105 169.309416 
L 162.782258 168.483643 
L 163.299728 166.913488 
L 163.908514 164.257121 
L 164.608622 160.096529 
L 165.400047 153.936694 
L 166.282788 145.232352 
L 167.317729 132.674538 
L 168.596184 114.247714 
L 172.218473 60.163293 
L 173.070775 51.537448 
L 173.710003 47.057873 
L 174.227474 44.8345 
L 174.592746 44.059102 
L 174.866701 43.9161 
L 175.079777 44.06501 
L 175.353732 44.588485 
L 175.719005 45.857318 
L 176.175596 48.327302 
L 176.753945 52.767504 
L 177.48449 60.206207 
L 178.48899 72.98016 
L 180.406674 101.035152 
L 182.050401 123.526536 
L 183.17666 136.045959 
L 184.120282 144.231492 
L 184.942145 149.567733 
L 185.642251 152.808251 
L 186.25104 154.673368 
L 186.738069 155.541238 
L 187.133782 155.843585 
L 187.438177 155.832058 
L 187.77301 155.574612 
L 188.168722 154.938925 
L 188.655753 153.659763 
L 189.234101 151.418176 
L 189.903769 147.821332 
L 190.664753 142.400235 
L 191.517057 134.629429 
L 192.491118 123.624652 
L 193.708694 107.125189 
L 197.848453 48.374315 
L 198.609438 41.744205 
L 199.187787 38.389325 
L 199.644378 36.86626 
L 199.979212 36.405809 
L 200.1923 36.40579 
L 200.435815 36.685059 
L 200.740209 37.449892 
L 201.135921 39.12127 
L 201.653391 42.412587 
L 202.292619 48.065122 
L 203.114483 57.513147 
L 204.27118 73.73564 
L 207.802152 125.117311 
L 208.89797 137.031587 
L 209.841592 144.961897 
L 210.663455 150.078011 
L 211.363562 153.146497 
L 211.94191 154.809124 
L 212.428941 155.608625 
L 212.794213 155.851321 
L 213.098608 155.820444 
L 213.433442 155.541238 
L 213.829153 154.878047 
L 214.316184 153.560681 
L 214.894533 151.265595 
L 215.5642 147.595263 
L 216.325184 142.080823 
L 217.207928 133.898552 
L 218.212428 122.391969 
L 219.521323 104.585754 
L 222.71746 59.860528 
L 223.569763 51.465052 
L 224.23943 46.890796 
L 224.756901 44.75508 
L 225.122174 44.029851 
L 225.365689 43.91533 
L 225.578765 44.059102 
L 225.85272 44.578324 
L 226.217992 45.849774 
L 226.674583 48.345026 
L 227.252931 52.868304 
L 227.983477 60.520673 
L 228.9271 72.953276 
L 230.449071 96.454806 
L 232.640708 129.801845 
L 233.827844 144.56193 
L 234.832344 154.465913 
L 235.715088 161.103051 
L 236.476072 165.287429 
L 237.145737 167.822698 
L 237.69365 169.116298 
L 238.119799 169.642823 
L 238.454634 169.763242 
L 238.759027 169.648413 
L 239.093861 169.274084 
L 239.520014 168.418463 
L 240.037481 166.800232 
L 240.64627 164.066966 
L 241.346377 159.79258 
L 242.137803 153.490459 
L 243.050985 144.330329 
L 244.146803 130.957975 
L 245.760092 108.173024 
L 247.708213 81.323032 
L 248.651833 71.226168 
L 249.35194 65.824911 
L 249.899849 63.084106 
L 250.326002 61.934663 
L 250.630395 61.660398 
L 250.84347 61.743474 
L 251.086989 62.11648 
L 251.42182 63.110913 
L 251.84797 65.167806 
L 252.395879 69.056688 
L 253.065548 75.544017 
L 253.917853 86.107221 
L 255.135431 104.250235 
L 258.422886 154.531852 
L 259.579581 168.274114 
L 260.614523 178.061954 
L 261.55814 185.012991 
L 262.471322 190.167232 
L 263.354069 193.931383 
L 264.236809 196.75022 
L 265.119556 198.854821 
L 266.063173 200.536781 
L 267.098115 201.925586 
L 268.315693 203.182889 
L 269.928979 204.51553 
L 272.51633 206.331113 
L 276.96048 209.155429 
L 281.891668 212.03677 
L 286.701091 214.591902 
L 291.419202 216.848317 
L 296.137307 218.858251 
L 300.885853 220.639398 
L 305.725723 222.217429 
L 310.717789 223.611137 
L 315.953361 224.839987 
L 321.493336 225.908917 
L 327.429013 226.825078 
L 333.912611 227.598115 
L 341.187625 228.237039 
L 349.588911 228.745172 
L 352.267574 228.86681 
L 352.267574 228.86681 
" clip-path="url(#paf17c12146)" style="fill: none; stroke: #00b945; stroke-linecap: square"/>
   </g>
   <g id="patch_3">
    <path d="M 32.685756 239.66218 
L 32.685756 17.90218 
" style="fill: none; stroke: #000000; stroke-width: 0.5; stroke-linejoin: miter; stroke-linecap: square"/>
   </g>
   <g id="patch_4">
    <path d="M 367.485756 239.66218 
L 367.485756 17.90218 
" style="fill: none; stroke: #000000; stroke-width: 0.5; stroke-linejoin: miter; stroke-linecap: square"/>
   </g>
   <g id="patch_5">
    <path d="M 32.685756 239.66218 
L 367.485756 239.66218 
" style="fill: none; stroke: #000000; stroke-width: 0.5; stroke-linejoin: miter; stroke-linecap: square"/>
   </g>
   <g id="patch_6">
    <path d="M 32.685756 17.90218 
L 367.485756 17.90218 
" style="fill: none; stroke: #000000; stroke-width: 0.5; stroke-linejoin: miter; stroke-linecap: square"/>
   </g>
   <g id="text_17">
    <!-- Kernel Density Estimation -->
    <g transform="translate(131.739979 11.90218) scale(0.12 -0.12)">
     <defs>
      <path id="CMR17-4b" d="M 2362 2675 
L 3469 3782 
C 3699 4006 3942 4186 4301 4186 
L 4301 4352 
C 4173 4352 4013 4352 3885 4352 
C 3712 4352 3411 4352 3245 4358 
L 3245 4192 
C 3411 4180 3437 4065 3437 4019 
C 3437 3975 3411 3905 3386 3867 
L 1261 1738 
L 1261 3900 
C 1261 4186 1331 4186 1773 4186 
L 1773 4352 
C 1587 4352 1248 4352 1050 4352 
C 851 4352 512 4352 326 4352 
L 326 4186 
C 768 4186 838 4186 838 3899 
L 838 446 
C 838 160 768 160 326 160 
L 326 0 
C 512 0 851 0 1050 0 
C 1248 0 1587 0 1773 0 
L 1773 160 
C 1331 160 1261 160 1261 447 
L 1261 1579 
L 2080 2390 
L 3290 537 
C 3328 473 3373 390 3373 326 
C 3373 160 3194 160 3110 160 
L 3110 0 
C 3315 0 3610 0 3821 0 
C 3974 0 4237 0 4384 -6 
L 4384 160 
C 4077 160 3981 198 3789 493 
L 2362 2675 
z
" transform="scale(0.015625)"/>
      <path id="CMR17-72" d="M 960 1497 
C 960 2112 1222 2688 1702 2688 
C 1747 2688 1792 2682 1837 2662 
C 1837 2662 1696 2617 1696 2452 
C 1696 2298 1818 2234 1914 2234 
C 1990 2234 2131 2279 2131 2458 
C 2131 2663 1926 2790 1709 2790 
C 1222 2790 1011 2317 947 2093 
L 941 2093 
L 941 2790 
L 198 2720 
L 198 2554 
C 576 2554 634 2515 634 2208 
L 634 428 
C 634 184 608 153 198 153 
L 198 -13 
C 352 0 646 0 813 0 
C 998 0 1325 0 1498 -13 
L 1498 153 
C 1037 153 960 153 960 440 
L 960 1497 
z
" transform="scale(0.015625)"/>
      <path id="CMR17-6c" d="M 979 4396 
L 218 4326 
L 218 4160 
C 595 4160 653 4122 653 3817 
L 653 426 
C 653 184 627 153 218 153 
L 218 -13 
C 371 0 653 0 813 0 
C 979 0 1261 0 1414 -13 
L 1414 153 
C 1005 153 979 178 979 426 
L 979 4396 
z
" transform="scale(0.015625)"/>
      <path id="CMR17-45" d="M 3885 1615 
L 3770 1615 
C 3629 676 3546 166 2419 166 
L 1530 166 
C 1274 166 1261 197 1261 414 
L 1261 2176 
L 1862 2176 
C 2464 2176 2522 1960 2522 1430 
L 2637 1430 
L 2637 3081 
L 2522 3081 
C 2522 2557 2464 2342 1862 2342 
L 1261 2342 
L 1261 3913 
C 1261 4128 1274 4160 1530 4160 
L 2406 4160 
C 3398 4160 3514 3769 3603 2929 
L 3718 2929 
L 3565 4325 
L 326 4325 
L 326 4160 
C 768 4160 838 4160 838 3874 
L 838 451 
C 838 166 768 166 326 166 
L 326 0 
L 3654 0 
L 3885 1615 
z
" transform="scale(0.015625)"/>
      <path id="CMR17-6d" d="M 4326 1933 
C 4326 2252 4269 2790 3507 2790 
C 3072 2790 2771 2496 2656 2151 
L 2650 2151 
C 2573 2676 2195 2790 1837 2790 
C 1331 2790 1069 2400 973 2144 
L 966 2144 
L 966 2790 
L 211 2720 
L 211 2554 
C 589 2554 646 2515 646 2208 
L 646 428 
C 646 184 621 153 211 153 
L 211 -13 
C 365 0 646 0 813 0 
C 979 0 1267 0 1421 -13 
L 1421 153 
C 1011 153 986 178 986 428 
L 986 1658 
C 986 2247 1344 2688 1792 2688 
C 2266 2688 2317 2266 2317 1958 
L 2317 428 
C 2317 184 2291 153 1882 153 
L 1882 -13 
C 2035 0 2317 0 2483 0 
C 2650 0 2938 0 3091 -13 
L 3091 153 
C 2682 153 2656 178 2656 428 
L 2656 1658 
C 2656 2247 3014 2688 3462 2688 
C 3936 2688 3987 2266 3987 1958 
L 3987 428 
C 3987 184 3962 153 3552 153 
L 3552 -13 
C 3706 0 3987 0 4154 0 
C 4320 0 4608 0 4762 -13 
L 4762 153 
C 4352 153 4326 178 4326 428 
L 4326 1933 
z
" transform="scale(0.015625)"/>
      <path id="CMR17-61" d="M 2304 1653 
C 2304 2072 2304 2294 2035 2543 
C 1798 2752 1523 2816 1306 2816 
C 800 2816 435 2407 435 1971 
C 435 1728 627 1728 666 1728 
C 749 1728 896 1778 896 1954 
C 896 2112 774 2181 666 2181 
C 640 2181 608 2174 589 2168 
C 723 2592 1069 2714 1293 2714 
C 1613 2714 1965 2429 1965 1885 
L 1965 1600 
C 1587 1600 1133 1549 774 1357 
C 371 1133 256 813 256 570 
C 256 77 832 -64 1171 -64 
C 1523 -64 1850 139 1990 511 
C 2003 233 2182 -18 2464 -18 
C 2598 -18 2938 70 2938 567 
L 2938 920 
L 2822 920 
L 2822 562 
C 2822 178 2650 128 2566 128 
C 2304 128 2304 458 2304 738 
L 2304 1653 
z
M 1965 870 
C 1965 317 1568 38 1216 38 
C 896 38 646 275 646 570 
C 646 761 730 1100 1101 1305 
C 1408 1478 1760 1504 1965 1504 
L 1965 870 
z
" transform="scale(0.015625)"/>
      <path id="CMR17-6f" d="M 2758 1356 
C 2758 2176 2163 2816 1466 2816 
C 768 2816 173 2176 173 1356 
C 173 551 768 -64 1466 -64 
C 2163 -64 2758 551 2758 1356 
z
M 1466 51 
C 1165 51 909 230 762 480 
C 602 767 582 1126 582 1408 
C 582 1677 595 2010 762 2298 
C 890 2509 1139 2714 1466 2714 
C 1754 2714 1997 2554 2150 2330 
C 2349 2029 2349 1607 2349 1408 
C 2349 1158 2336 775 2163 467 
C 1984 173 1709 51 1466 51 
z
" transform="scale(0.015625)"/>
     </defs>
     <use xlink:href="#CMR17-4b" transform="scale(0.996264)"/>
     <use xlink:href="#CMR17-65" transform="translate(71.674777 0) scale(0.996264)"/>
     <use xlink:href="#CMR17-72" transform="translate(112.160438 0) scale(0.996264)"/>
     <use xlink:href="#CMR17-6e" transform="translate(147.441206 0) scale(0.996264)"/>
     <use xlink:href="#CMR17-65" transform="translate(198.336575 0) scale(0.996264)"/>
     <use xlink:href="#CMR17-6c" transform="translate(238.822236 0) scale(0.996264)"/>
     <use xlink:href="#CMR17-44" transform="translate(293.769261 0) scale(0.996264)"/>
     <use xlink:href="#CMR17-65" transform="translate(364.162817 0) scale(0.996264)"/>
     <use xlink:href="#CMR17-6e" transform="translate(404.648477 0) scale(0.996264)"/>
     <use xlink:href="#CMR17-73" transform="translate(455.543847 0) scale(0.996264)"/>
     <use xlink:href="#CMR17-69" transform="translate(491.345184 0) scale(0.996264)"/>
     <use xlink:href="#CMR17-74" transform="translate(516.216243 0) scale(0.996264)"/>
     <use xlink:href="#CMR17-79" transform="translate(548.894557 0) scale(0.996264)"/>
     <use xlink:href="#CMR17-45" transform="translate(627.263439 0) scale(0.996264)"/>
     <use xlink:href="#CMR17-73" transform="translate(689.84974 0) scale(0.996264)"/>
     <use xlink:href="#CMR17-74" transform="translate(725.651077 0) scale(0.996264)"/>
     <use xlink:href="#CMR17-69" transform="translate(760.931845 0) scale(0.996264)"/>
     <use xlink:href="#CMR17-6d" transform="translate(785.802903 0) scale(0.996264)"/>
     <use xlink:href="#CMR17-61" transform="translate(862.722493 0) scale(0.996264)"/>
     <use xlink:href="#CMR17-74" transform="translate(908.41297 0) scale(0.996264)"/>
     <use xlink:href="#CMR17-69" transform="translate(943.693738 0) scale(0.996264)"/>
     <use xlink:href="#CMR17-6f" transform="translate(968.564797 0) scale(0.996264)"/>
     <use xlink:href="#CMR17-6e" transform="translate(1014.255274 0) scale(0.996264)"/>
    </g>
   </g>
   <g id="legend_1">
    <g id="line2d_137">
     <path d="M 249.56682 30.40218 
L 259.56682 30.40218 
L 269.56682 30.40218 
" style="fill: none; stroke: #0c5da5; stroke-linecap: square"/>
    </g>
    <g id="text_18">
     <!-- Estimated Density -->
     <g transform="translate(277.56682 33.90218) scale(0.1 -0.1)">
      <defs>
       <path id="CMR17-64" d="M 1869 4326 
L 1869 4160 
C 2246 4160 2304 4122 2304 3820 
L 2304 2345 
C 2278 2377 2016 2790 1498 2790 
C 845 2790 211 2208 211 1364 
C 211 525 806 -64 1434 -64 
C 1978 -64 2259 337 2291 380 
L 2291 -63 
L 3066 -63 
L 3066 128 
C 2688 128 2630 166 2630 473 
L 2630 4396 
L 1869 4326 
z
M 2291 755 
C 2291 563 2176 390 2029 262 
C 1811 70 1594 38 1472 38 
C 1286 38 621 134 621 1356 
C 621 2612 1363 2688 1530 2688 
C 1824 2688 2061 2522 2208 2291 
C 2291 2157 2291 2138 2291 2023 
L 2291 755 
z
" transform="scale(0.015625)"/>
      </defs>
      <use xlink:href="#CMR17-45" transform="scale(0.996264)"/>
      <use xlink:href="#CMR17-73" transform="translate(62.586301 0) scale(0.996264)"/>
      <use xlink:href="#CMR17-74" transform="translate(98.387638 0) scale(0.996264)"/>
      <use xlink:href="#CMR17-69" transform="translate(133.668406 0) scale(0.996264)"/>
      <use xlink:href="#CMR17-6d" transform="translate(158.539464 0) scale(0.996264)"/>
      <use xlink:href="#CMR17-61" transform="translate(235.459054 0) scale(0.996264)"/>
      <use xlink:href="#CMR17-74" transform="translate(281.149531 0) scale(0.996264)"/>
      <use xlink:href="#CMR17-65" transform="translate(316.430299 0) scale(0.996264)"/>
      <use xlink:href="#CMR17-64" transform="translate(356.91596 0) scale(0.996264)"/>
      <use xlink:href="#CMR17-44" transform="translate(437.887296 0) scale(0.996264)"/>
      <use xlink:href="#CMR17-65" transform="translate(508.280852 0) scale(0.996264)"/>
      <use xlink:href="#CMR17-6e" transform="translate(548.766512 0) scale(0.996264)"/>
      <use xlink:href="#CMR17-73" transform="translate(599.661882 0) scale(0.996264)"/>
      <use xlink:href="#CMR17-69" transform="translate(635.46322 0) scale(0.996264)"/>
      <use xlink:href="#CMR17-74" transform="translate(660.334278 0) scale(0.996264)"/>
      <use xlink:href="#CMR17-79" transform="translate(693.012592 0) scale(0.996264)"/>
     </g>
    </g>
    <g id="line2d_138">
     <path d="M 249.56682 44.339358 
L 259.56682 44.339358 
L 269.56682 44.339358 
" style="fill: none; stroke: #00b945; stroke-linecap: square"/>
    </g>
    <g id="text_19">
     <!-- True Density -->
     <g transform="translate(277.56682 47.839358) scale(0.1 -0.1)">
      <defs>
       <path id="CMR17-54" d="M 3981 4326 
L 288 4326 
L 179 2918 
L 294 2918 
C 378 3976 467 4160 1453 4160 
C 1568 4160 1754 4160 1805 4154 
C 1926 4135 1926 4058 1926 3912 
L 1926 459 
C 1926 230 1907 160 1376 160 
L 1197 160 
L 1197 0 
C 1504 0 1824 0 2138 0 
C 2451 0 2771 0 3078 0 
L 3078 160 
L 2899 160 
C 2368 160 2349 230 2349 459 
L 2349 3912 
C 2349 4052 2349 4129 2464 4154 
C 2515 4160 2701 4160 2816 4160 
C 3795 4160 3891 3976 3974 2918 
L 4090 2918 
L 3981 4326 
z
" transform="scale(0.015625)"/>
       <path id="CMR17-75" d="M 1882 2693 
L 1882 2528 
C 2259 2528 2317 2489 2317 2186 
L 2317 1032 
C 2317 500 2029 38 1555 38 
C 1030 38 986 348 986 678 
L 986 2763 
L 211 2693 
L 211 2528 
C 467 2528 640 2528 646 2274 
L 646 1058 
C 646 633 646 361 813 183 
C 896 101 1056 -64 1517 -64 
C 2061 -64 2272 377 2323 506 
L 2330 506 
L 2330 -63 
L 3091 -63 
L 3091 128 
C 2714 128 2656 166 2656 473 
L 2656 2763 
L 1882 2693 
z
" transform="scale(0.015625)"/>
      </defs>
      <use xlink:href="#CMR17-54" transform="scale(0.996264)"/>
      <use xlink:href="#CMR17-72" transform="translate(58.702625 0) scale(0.996264)"/>
      <use xlink:href="#CMR17-75" transform="translate(93.983393 0) scale(0.996264)"/>
      <use xlink:href="#CMR17-65" transform="translate(144.878763 0) scale(0.996264)"/>
      <use xlink:href="#CMR17-44" transform="translate(215.44039 0) scale(0.996264)"/>
      <use xlink:href="#CMR17-65" transform="translate(285.833945 0) scale(0.996264)"/>
      <use xlink:href="#CMR17-6e" transform="translate(326.319606 0) scale(0.996264)"/>
      <use xlink:href="#CMR17-73" transform="translate(377.214976 0) scale(0.996264)"/>
      <use xlink:href="#CMR17-69" transform="translate(413.016313 0) scale(0.996264)"/>
      <use xlink:href="#CMR17-74" transform="translate(437.887372 0) scale(0.996264)"/>
      <use xlink:href="#CMR17-79" transform="translate(470.565686 0) scale(0.996264)"/>
     </g>
    </g>
   </g>
  </g>
 </g>
 <defs>
  <clipPath id="paf17c12146">
   <rect x="32.685756" y="17.90218" width="334.8" height="221.76"/>
  </clipPath>
 </defs>
</svg>
