<?xml version="1.0" encoding="utf-8" standalone="no"?>
<!DOCTYPE svg PUBLIC "-//W3C//DTD SVG 1.1//EN"
  "http://www.w3.org/Graphics/SVG/1.1/DTD/svg11.dtd">
<svg xmlns:xlink="http://www.w3.org/1999/xlink" width="371.085756pt" height="268.473533pt" viewBox="0 0 371.085756 268.473533" xmlns="http://www.w3.org/2000/svg" version="1.1">
 <metadata>
  <rdf:RDF xmlns:dc="http://purl.org/dc/elements/1.1/" xmlns:cc="http://creativecommons.org/ns#" xmlns:rdf="http://www.w3.org/1999/02/22-rdf-syntax-ns#">
   <cc:Work>
    <dc:type rdf:resource="http://purl.org/dc/dcmitype/StillImage"/>
    <dc:date>2025-01-09T10:15:01.962188</dc:date>
    <dc:format>image/svg+xml</dc:format>
    <dc:creator>
     <cc:Agent>
      <dc:title>Matplotlib v3.9.3, https://matplotlib.org/</dc:title>
     </cc:Agent>
    </dc:creator>
   </cc:Work>
  </rdf:RDF>
 </metadata>
 <defs>
  <style type="text/css">*{stroke-linejoin: round; stroke-linecap: butt}</style>
 </defs>
 <g id="figure_1">
  <g id="patch_1">
   <path d="M 0 268.473533 
L 371.085756 268.473533 
L 371.085756 0 
L 0 0 
z
" style="fill: #ffffff"/>
  </g>
  <g id="axes_1">
   <g id="patch_2">
    <path d="M 32.685756 239.66218 
L 367.485756 239.66218 
L 367.485756 17.90218 
L 32.685756 17.90218 
z
" style="fill: #ffffff"/>
   </g>
   <g id="matplotlib.axis_1">
    <g id="xtick_1">
     <g id="line2d_1">
      <defs>
       <path id="m0de11b9f8c" d="M 0 0 
L 0 -3 
" style="stroke: #000000; stroke-width: 0.5"/>
      </defs>
      <g>
       <use xlink:href="#m0de11b9f8c" x="47.903938" y="239.66218" style="stroke: #000000; stroke-width: 0.5"/>
      </g>
     </g>
     <g id="line2d_2">
      <defs>
       <path id="m67b062c2fd" d="M 0 0 
L 0 3 
" style="stroke: #000000; stroke-width: 0.5"/>
      </defs>
      <g>
       <use xlink:href="#m67b062c2fd" x="47.903938" y="17.90218" style="stroke: #000000; stroke-width: 0.5"/>
      </g>
     </g>
     <g id="text_1">
      <!-- $\mathdefault{−3}$ -->
      <g transform="translate(41.538898 250.080678) scale(0.1 -0.1)">
       <defs>
        <path id="CMSY10-0" d="M 4218 1472 
C 4326 1472 4442 1472 4442 1600 
C 4442 1728 4326 1728 4218 1728 
L 755 1728 
C 646 1728 531 1728 531 1600 
C 531 1472 646 1472 755 1472 
L 4218 1472 
z
" transform="scale(0.015625)"/>
        <path id="CMR17-33" d="M 1414 2157 
C 1984 2157 2234 1662 2234 1090 
C 2234 320 1824 25 1453 25 
C 1114 25 563 194 390 693 
C 422 680 454 680 486 680 
C 640 680 755 782 755 948 
C 755 1133 614 1216 486 1216 
C 378 1216 211 1165 211 926 
C 211 335 787 -128 1466 -128 
C 2176 -128 2720 430 2720 1085 
C 2720 1707 2208 2157 1600 2227 
C 2086 2328 2554 2756 2554 3329 
C 2554 3820 2048 4179 1472 4179 
C 890 4179 378 3829 378 3329 
C 378 3110 544 3072 627 3072 
C 762 3072 877 3155 877 3321 
C 877 3486 762 3569 627 3569 
C 602 3569 570 3569 544 3557 
C 730 3959 1235 4032 1459 4032 
C 1683 4032 2106 3925 2106 3320 
C 2106 3143 2080 2828 1862 2550 
C 1670 2304 1453 2304 1242 2284 
C 1210 2284 1062 2269 1037 2269 
C 992 2263 966 2257 966 2208 
C 966 2163 973 2157 1101 2157 
L 1414 2157 
z
" transform="scale(0.015625)"/>
       </defs>
       <use xlink:href="#CMSY10-0" transform="scale(0.996264)"/>
       <use xlink:href="#CMR17-33" transform="translate(77.487468 0) scale(0.996264)"/>
      </g>
     </g>
    </g>
    <g id="xtick_2">
     <g id="line2d_3">
      <g>
       <use xlink:href="#m0de11b9f8c" x="98.63121" y="239.66218" style="stroke: #000000; stroke-width: 0.5"/>
      </g>
     </g>
     <g id="line2d_4">
      <g>
       <use xlink:href="#m67b062c2fd" x="98.63121" y="17.90218" style="stroke: #000000; stroke-width: 0.5"/>
      </g>
     </g>
     <g id="text_2">
      <!-- $\mathdefault{−2}$ -->
      <g transform="translate(92.266171 250.080678) scale(0.1 -0.1)">
       <defs>
        <path id="CMR17-32" d="M 2669 989 
L 2554 989 
C 2490 536 2438 459 2413 420 
C 2381 369 1920 369 1830 369 
L 602 369 
C 832 619 1280 1072 1824 1597 
C 2214 1967 2669 2402 2669 3035 
C 2669 3790 2067 4224 1395 4224 
C 691 4224 262 3604 262 3030 
C 262 2780 448 2748 525 2748 
C 589 2748 781 2787 781 3010 
C 781 3207 614 3264 525 3264 
C 486 3264 448 3258 422 3245 
C 544 3790 915 4058 1306 4058 
C 1862 4058 2227 3617 2227 3035 
C 2227 2479 1901 2000 1536 1584 
L 262 146 
L 262 0 
L 2515 0 
L 2669 989 
z
" transform="scale(0.015625)"/>
       </defs>
       <use xlink:href="#CMSY10-0" transform="scale(0.996264)"/>
       <use xlink:href="#CMR17-32" transform="translate(77.487468 0) scale(0.996264)"/>
      </g>
     </g>
    </g>
    <g id="xtick_3">
     <g id="line2d_5">
      <g>
       <use xlink:href="#m0de11b9f8c" x="149.358483" y="239.66218" style="stroke: #000000; stroke-width: 0.5"/>
      </g>
     </g>
     <g id="line2d_6">
      <g>
       <use xlink:href="#m67b062c2fd" x="149.358483" y="17.90218" style="stroke: #000000; stroke-width: 0.5"/>
      </g>
     </g>
     <g id="text_3">
      <!-- $\mathdefault{−1}$ -->
      <g transform="translate(142.993443 250.080678) scale(0.1 -0.1)">
       <defs>
        <path id="CMR17-31" d="M 1702 4058 
C 1702 4192 1696 4192 1606 4192 
C 1357 3916 979 3827 621 3827 
C 602 3827 570 3827 563 3808 
C 557 3795 557 3782 557 3648 
C 755 3648 1088 3686 1344 3839 
L 1344 461 
C 1344 236 1331 160 781 160 
L 589 160 
L 589 0 
C 896 0 1216 0 1523 0 
C 1830 0 2150 0 2458 0 
L 2458 160 
L 2266 160 
C 1715 160 1702 230 1702 458 
L 1702 4058 
z
" transform="scale(0.015625)"/>
       </defs>
       <use xlink:href="#CMSY10-0" transform="scale(0.996264)"/>
       <use xlink:href="#CMR17-31" transform="translate(77.487468 0) scale(0.996264)"/>
      </g>
     </g>
    </g>
    <g id="xtick_4">
     <g id="line2d_7">
      <g>
       <use xlink:href="#m0de11b9f8c" x="200.085756" y="239.66218" style="stroke: #000000; stroke-width: 0.5"/>
      </g>
     </g>
     <g id="line2d_8">
      <g>
       <use xlink:href="#m67b062c2fd" x="200.085756" y="17.90218" style="stroke: #000000; stroke-width: 0.5"/>
      </g>
     </g>
     <g id="text_4">
      <!-- $\mathdefault{0}$ -->
      <g transform="translate(197.595088 250.080678) scale(0.1 -0.1)">
       <defs>
        <path id="CMR17-30" d="M 2688 2025 
C 2688 2416 2682 3080 2413 3591 
C 2176 4039 1798 4198 1466 4198 
C 1158 4198 768 4058 525 3597 
C 269 3118 243 2524 243 2025 
C 243 1661 250 1106 448 619 
C 723 -39 1216 -128 1466 -128 
C 1760 -128 2208 -7 2470 600 
C 2662 1042 2688 1559 2688 2025 
z
M 1466 -26 
C 1056 -26 813 325 723 812 
C 653 1188 653 1738 653 2096 
C 653 2588 653 2997 736 3387 
C 858 3929 1216 4096 1466 4096 
C 1728 4096 2067 3923 2189 3400 
C 2272 3036 2278 2607 2278 2096 
C 2278 1680 2278 1169 2202 792 
C 2067 95 1690 -26 1466 -26 
z
" transform="scale(0.015625)"/>
       </defs>
       <use xlink:href="#CMR17-30" transform="scale(0.996264)"/>
      </g>
     </g>
    </g>
    <g id="xtick_5">
     <g id="line2d_9">
      <g>
       <use xlink:href="#m0de11b9f8c" x="250.813028" y="239.66218" style="stroke: #000000; stroke-width: 0.5"/>
      </g>
     </g>
     <g id="line2d_10">
      <g>
       <use xlink:href="#m67b062c2fd" x="250.813028" y="17.90218" style="stroke: #000000; stroke-width: 0.5"/>
      </g>
     </g>
     <g id="text_5">
      <!-- $\mathdefault{1}$ -->
      <g transform="translate(248.322361 250.080678) scale(0.1 -0.1)">
       <use xlink:href="#CMR17-31" transform="scale(0.996264)"/>
      </g>
     </g>
    </g>
    <g id="xtick_6">
     <g id="line2d_11">
      <g>
       <use xlink:href="#m0de11b9f8c" x="301.540301" y="239.66218" style="stroke: #000000; stroke-width: 0.5"/>
      </g>
     </g>
     <g id="line2d_12">
      <g>
       <use xlink:href="#m67b062c2fd" x="301.540301" y="17.90218" style="stroke: #000000; stroke-width: 0.5"/>
      </g>
     </g>
     <g id="text_6">
      <!-- $\mathdefault{2}$ -->
      <g transform="translate(299.049634 250.080678) scale(0.1 -0.1)">
       <use xlink:href="#CMR17-32" transform="scale(0.996264)"/>
      </g>
     </g>
    </g>
    <g id="xtick_7">
     <g id="line2d_13">
      <g>
       <use xlink:href="#m0de11b9f8c" x="352.267574" y="239.66218" style="stroke: #000000; stroke-width: 0.5"/>
      </g>
     </g>
     <g id="line2d_14">
      <g>
       <use xlink:href="#m67b062c2fd" x="352.267574" y="17.90218" style="stroke: #000000; stroke-width: 0.5"/>
      </g>
     </g>
     <g id="text_7">
      <!-- $\mathdefault{3}$ -->
      <g transform="translate(349.776906 250.080678) scale(0.1 -0.1)">
       <use xlink:href="#CMR17-33" transform="scale(0.996264)"/>
      </g>
     </g>
    </g>
    <g id="xtick_8">
     <g id="line2d_15">
      <defs>
       <path id="m16c4575663" d="M 0 0 
L 0 -1.5 
" style="stroke: #000000; stroke-width: 0.5"/>
      </defs>
      <g>
       <use xlink:href="#m16c4575663" x="37.758483" y="239.66218" style="stroke: #000000; stroke-width: 0.5"/>
      </g>
     </g>
     <g id="line2d_16">
      <defs>
       <path id="m53c3af8483" d="M 0 0 
L 0 1.5 
" style="stroke: #000000; stroke-width: 0.5"/>
      </defs>
      <g>
       <use xlink:href="#m53c3af8483" x="37.758483" y="17.90218" style="stroke: #000000; stroke-width: 0.5"/>
      </g>
     </g>
    </g>
    <g id="xtick_9">
     <g id="line2d_17">
      <g>
       <use xlink:href="#m16c4575663" x="58.049392" y="239.66218" style="stroke: #000000; stroke-width: 0.5"/>
      </g>
     </g>
     <g id="line2d_18">
      <g>
       <use xlink:href="#m53c3af8483" x="58.049392" y="17.90218" style="stroke: #000000; stroke-width: 0.5"/>
      </g>
     </g>
    </g>
    <g id="xtick_10">
     <g id="line2d_19">
      <g>
       <use xlink:href="#m16c4575663" x="68.194847" y="239.66218" style="stroke: #000000; stroke-width: 0.5"/>
      </g>
     </g>
     <g id="line2d_20">
      <g>
       <use xlink:href="#m53c3af8483" x="68.194847" y="17.90218" style="stroke: #000000; stroke-width: 0.5"/>
      </g>
     </g>
    </g>
    <g id="xtick_11">
     <g id="line2d_21">
      <g>
       <use xlink:href="#m16c4575663" x="78.340301" y="239.66218" style="stroke: #000000; stroke-width: 0.5"/>
      </g>
     </g>
     <g id="line2d_22">
      <g>
       <use xlink:href="#m53c3af8483" x="78.340301" y="17.90218" style="stroke: #000000; stroke-width: 0.5"/>
      </g>
     </g>
    </g>
    <g id="xtick_12">
     <g id="line2d_23">
      <g>
       <use xlink:href="#m16c4575663" x="88.485756" y="239.66218" style="stroke: #000000; stroke-width: 0.5"/>
      </g>
     </g>
     <g id="line2d_24">
      <g>
       <use xlink:href="#m53c3af8483" x="88.485756" y="17.90218" style="stroke: #000000; stroke-width: 0.5"/>
      </g>
     </g>
    </g>
    <g id="xtick_13">
     <g id="line2d_25">
      <g>
       <use xlink:href="#m16c4575663" x="108.776665" y="239.66218" style="stroke: #000000; stroke-width: 0.5"/>
      </g>
     </g>
     <g id="line2d_26">
      <g>
       <use xlink:href="#m53c3af8483" x="108.776665" y="17.90218" style="stroke: #000000; stroke-width: 0.5"/>
      </g>
     </g>
    </g>
    <g id="xtick_14">
     <g id="line2d_27">
      <g>
       <use xlink:href="#m16c4575663" x="118.922119" y="239.66218" style="stroke: #000000; stroke-width: 0.5"/>
      </g>
     </g>
     <g id="line2d_28">
      <g>
       <use xlink:href="#m53c3af8483" x="118.922119" y="17.90218" style="stroke: #000000; stroke-width: 0.5"/>
      </g>
     </g>
    </g>
    <g id="xtick_15">
     <g id="line2d_29">
      <g>
       <use xlink:href="#m16c4575663" x="129.067574" y="239.66218" style="stroke: #000000; stroke-width: 0.5"/>
      </g>
     </g>
     <g id="line2d_30">
      <g>
       <use xlink:href="#m53c3af8483" x="129.067574" y="17.90218" style="stroke: #000000; stroke-width: 0.5"/>
      </g>
     </g>
    </g>
    <g id="xtick_16">
     <g id="line2d_31">
      <g>
       <use xlink:href="#m16c4575663" x="139.213028" y="239.66218" style="stroke: #000000; stroke-width: 0.5"/>
      </g>
     </g>
     <g id="line2d_32">
      <g>
       <use xlink:href="#m53c3af8483" x="139.213028" y="17.90218" style="stroke: #000000; stroke-width: 0.5"/>
      </g>
     </g>
    </g>
    <g id="xtick_17">
     <g id="line2d_33">
      <g>
       <use xlink:href="#m16c4575663" x="159.503938" y="239.66218" style="stroke: #000000; stroke-width: 0.5"/>
      </g>
     </g>
     <g id="line2d_34">
      <g>
       <use xlink:href="#m53c3af8483" x="159.503938" y="17.90218" style="stroke: #000000; stroke-width: 0.5"/>
      </g>
     </g>
    </g>
    <g id="xtick_18">
     <g id="line2d_35">
      <g>
       <use xlink:href="#m16c4575663" x="169.649392" y="239.66218" style="stroke: #000000; stroke-width: 0.5"/>
      </g>
     </g>
     <g id="line2d_36">
      <g>
       <use xlink:href="#m53c3af8483" x="169.649392" y="17.90218" style="stroke: #000000; stroke-width: 0.5"/>
      </g>
     </g>
    </g>
    <g id="xtick_19">
     <g id="line2d_37">
      <g>
       <use xlink:href="#m16c4575663" x="179.794847" y="239.66218" style="stroke: #000000; stroke-width: 0.5"/>
      </g>
     </g>
     <g id="line2d_38">
      <g>
       <use xlink:href="#m53c3af8483" x="179.794847" y="17.90218" style="stroke: #000000; stroke-width: 0.5"/>
      </g>
     </g>
    </g>
    <g id="xtick_20">
     <g id="line2d_39">
      <g>
       <use xlink:href="#m16c4575663" x="189.940301" y="239.66218" style="stroke: #000000; stroke-width: 0.5"/>
      </g>
     </g>
     <g id="line2d_40">
      <g>
       <use xlink:href="#m53c3af8483" x="189.940301" y="17.90218" style="stroke: #000000; stroke-width: 0.5"/>
      </g>
     </g>
    </g>
    <g id="xtick_21">
     <g id="line2d_41">
      <g>
       <use xlink:href="#m16c4575663" x="210.23121" y="239.66218" style="stroke: #000000; stroke-width: 0.5"/>
      </g>
     </g>
     <g id="line2d_42">
      <g>
       <use xlink:href="#m53c3af8483" x="210.23121" y="17.90218" style="stroke: #000000; stroke-width: 0.5"/>
      </g>
     </g>
    </g>
    <g id="xtick_22">
     <g id="line2d_43">
      <g>
       <use xlink:href="#m16c4575663" x="220.376665" y="239.66218" style="stroke: #000000; stroke-width: 0.5"/>
      </g>
     </g>
     <g id="line2d_44">
      <g>
       <use xlink:href="#m53c3af8483" x="220.376665" y="17.90218" style="stroke: #000000; stroke-width: 0.5"/>
      </g>
     </g>
    </g>
    <g id="xtick_23">
     <g id="line2d_45">
      <g>
       <use xlink:href="#m16c4575663" x="230.522119" y="239.66218" style="stroke: #000000; stroke-width: 0.5"/>
      </g>
     </g>
     <g id="line2d_46">
      <g>
       <use xlink:href="#m53c3af8483" x="230.522119" y="17.90218" style="stroke: #000000; stroke-width: 0.5"/>
      </g>
     </g>
    </g>
    <g id="xtick_24">
     <g id="line2d_47">
      <g>
       <use xlink:href="#m16c4575663" x="240.667574" y="239.66218" style="stroke: #000000; stroke-width: 0.5"/>
      </g>
     </g>
     <g id="line2d_48">
      <g>
       <use xlink:href="#m53c3af8483" x="240.667574" y="17.90218" style="stroke: #000000; stroke-width: 0.5"/>
      </g>
     </g>
    </g>
    <g id="xtick_25">
     <g id="line2d_49">
      <g>
       <use xlink:href="#m16c4575663" x="260.958483" y="239.66218" style="stroke: #000000; stroke-width: 0.5"/>
      </g>
     </g>
     <g id="line2d_50">
      <g>
       <use xlink:href="#m53c3af8483" x="260.958483" y="17.90218" style="stroke: #000000; stroke-width: 0.5"/>
      </g>
     </g>
    </g>
    <g id="xtick_26">
     <g id="line2d_51">
      <g>
       <use xlink:href="#m16c4575663" x="271.103938" y="239.66218" style="stroke: #000000; stroke-width: 0.5"/>
      </g>
     </g>
     <g id="line2d_52">
      <g>
       <use xlink:href="#m53c3af8483" x="271.103938" y="17.90218" style="stroke: #000000; stroke-width: 0.5"/>
      </g>
     </g>
    </g>
    <g id="xtick_27">
     <g id="line2d_53">
      <g>
       <use xlink:href="#m16c4575663" x="281.249392" y="239.66218" style="stroke: #000000; stroke-width: 0.5"/>
      </g>
     </g>
     <g id="line2d_54">
      <g>
       <use xlink:href="#m53c3af8483" x="281.249392" y="17.90218" style="stroke: #000000; stroke-width: 0.5"/>
      </g>
     </g>
    </g>
    <g id="xtick_28">
     <g id="line2d_55">
      <g>
       <use xlink:href="#m16c4575663" x="291.394847" y="239.66218" style="stroke: #000000; stroke-width: 0.5"/>
      </g>
     </g>
     <g id="line2d_56">
      <g>
       <use xlink:href="#m53c3af8483" x="291.394847" y="17.90218" style="stroke: #000000; stroke-width: 0.5"/>
      </g>
     </g>
    </g>
    <g id="xtick_29">
     <g id="line2d_57">
      <g>
       <use xlink:href="#m16c4575663" x="311.685756" y="239.66218" style="stroke: #000000; stroke-width: 0.5"/>
      </g>
     </g>
     <g id="line2d_58">
      <g>
       <use xlink:href="#m53c3af8483" x="311.685756" y="17.90218" style="stroke: #000000; stroke-width: 0.5"/>
      </g>
     </g>
    </g>
    <g id="xtick_30">
     <g id="line2d_59">
      <g>
       <use xlink:href="#m16c4575663" x="321.83121" y="239.66218" style="stroke: #000000; stroke-width: 0.5"/>
      </g>
     </g>
     <g id="line2d_60">
      <g>
       <use xlink:href="#m53c3af8483" x="321.83121" y="17.90218" style="stroke: #000000; stroke-width: 0.5"/>
      </g>
     </g>
    </g>
    <g id="xtick_31">
     <g id="line2d_61">
      <g>
       <use xlink:href="#m16c4575663" x="331.976665" y="239.66218" style="stroke: #000000; stroke-width: 0.5"/>
      </g>
     </g>
     <g id="line2d_62">
      <g>
       <use xlink:href="#m53c3af8483" x="331.976665" y="17.90218" style="stroke: #000000; stroke-width: 0.5"/>
      </g>
     </g>
    </g>
    <g id="xtick_32">
     <g id="line2d_63">
      <g>
       <use xlink:href="#m16c4575663" x="342.122119" y="239.66218" style="stroke: #000000; stroke-width: 0.5"/>
      </g>
     </g>
     <g id="line2d_64">
      <g>
       <use xlink:href="#m53c3af8483" x="342.122119" y="17.90218" style="stroke: #000000; stroke-width: 0.5"/>
      </g>
     </g>
    </g>
    <g id="xtick_33">
     <g id="line2d_65">
      <g>
       <use xlink:href="#m16c4575663" x="362.413028" y="239.66218" style="stroke: #000000; stroke-width: 0.5"/>
      </g>
     </g>
     <g id="line2d_66">
      <g>
       <use xlink:href="#m53c3af8483" x="362.413028" y="17.90218" style="stroke: #000000; stroke-width: 0.5"/>
      </g>
     </g>
    </g>
    <g id="text_8">
     <!-- $x$ -->
     <g transform="translate(197.238796 262.936355) scale(0.1 -0.1)">
      <defs>
       <path id="CMMI12-78" d="M 3034 2606 
C 2829 2567 2752 2414 2752 2293 
C 2752 2139 2874 2088 2963 2088 
C 3155 2088 3290 2254 3290 2427 
C 3290 2695 2982 2816 2714 2816 
C 2323 2816 2106 2433 2048 2312 
C 1901 2816 1504 2816 1389 2816 
C 736 2816 390 1980 390 1839 
C 390 1814 416 1782 461 1782 
C 512 1782 525 1820 538 1846 
C 755 2555 1184 2689 1370 2689 
C 1658 2689 1715 2420 1715 2267 
C 1715 2127 1677 1980 1600 1673 
L 1382 798 
C 1286 415 1101 64 762 64 
C 730 64 570 64 435 147 
C 666 192 717 383 717 460 
C 717 588 621 664 499 664 
C 346 664 179 530 179 326 
C 179 57 480 -64 755 -64 
C 1062 -64 1280 179 1414 441 
C 1517 64 1837 -64 2074 -64 
C 2726 -64 3072 773 3072 913 
C 3072 945 3046 971 3008 971 
C 2950 971 2944 939 2925 888 
C 2752 326 2381 64 2093 64 
C 1869 64 1747 230 1747 492 
C 1747 632 1773 734 1875 1156 
L 2099 2024 
C 2195 2408 2413 2689 2707 2689 
C 2720 2689 2899 2689 3034 2606 
z
" transform="scale(0.015625)"/>
      </defs>
      <use xlink:href="#CMMI12-78" transform="scale(0.996264)"/>
     </g>
    </g>
   </g>
   <g id="matplotlib.axis_2">
    <g id="ytick_1">
     <g id="line2d_67">
      <defs>
       <path id="m339aad08b5" d="M 0 0 
L 3 0 
" style="stroke: #000000; stroke-width: 0.5"/>
      </defs>
      <g>
       <use xlink:href="#m339aad08b5" x="32.685756" y="229.677884" style="stroke: #000000; stroke-width: 0.5"/>
      </g>
     </g>
     <g id="line2d_68">
      <defs>
       <path id="m0498f1e24b" d="M 0 0 
L -3 0 
" style="stroke: #000000; stroke-width: 0.5"/>
      </defs>
      <g>
       <use xlink:href="#m0498f1e24b" x="367.485756" y="229.677884" style="stroke: #000000; stroke-width: 0.5"/>
      </g>
     </g>
     <g id="text_9">
      <!-- $\mathdefault{0.0}$ -->
      <g transform="translate(16.455677 233.137133) scale(0.1 -0.1)">
       <defs>
        <path id="CMMI12-3a" d="M 1178 307 
C 1178 492 1024 619 870 619 
C 685 619 557 466 557 313 
C 557 128 710 0 864 0 
C 1050 0 1178 153 1178 307 
z
" transform="scale(0.015625)"/>
       </defs>
       <use xlink:href="#CMR17-30" transform="scale(0.996264)"/>
       <use xlink:href="#CMMI12-3a" transform="translate(45.690477 0) scale(0.996264)"/>
       <use xlink:href="#CMR17-30" transform="translate(72.787654 0) scale(0.996264)"/>
      </g>
     </g>
    </g>
    <g id="ytick_2">
     <g id="line2d_69">
      <g>
       <use xlink:href="#m339aad08b5" x="32.685756" y="195.972873" style="stroke: #000000; stroke-width: 0.5"/>
      </g>
     </g>
     <g id="line2d_70">
      <g>
       <use xlink:href="#m0498f1e24b" x="367.485756" y="195.972873" style="stroke: #000000; stroke-width: 0.5"/>
      </g>
     </g>
     <g id="text_10">
      <!-- $\mathdefault{0.1}$ -->
      <g transform="translate(16.455677 199.432122) scale(0.1 -0.1)">
       <use xlink:href="#CMR17-30" transform="scale(0.996264)"/>
       <use xlink:href="#CMMI12-3a" transform="translate(45.690477 0) scale(0.996264)"/>
       <use xlink:href="#CMR17-31" transform="translate(72.787654 0) scale(0.996264)"/>
      </g>
     </g>
    </g>
    <g id="ytick_3">
     <g id="line2d_71">
      <g>
       <use xlink:href="#m339aad08b5" x="32.685756" y="162.267863" style="stroke: #000000; stroke-width: 0.5"/>
      </g>
     </g>
     <g id="line2d_72">
      <g>
       <use xlink:href="#m0498f1e24b" x="367.485756" y="162.267863" style="stroke: #000000; stroke-width: 0.5"/>
      </g>
     </g>
     <g id="text_11">
      <!-- $\mathdefault{0.2}$ -->
      <g transform="translate(16.455677 165.727112) scale(0.1 -0.1)">
       <use xlink:href="#CMR17-30" transform="scale(0.996264)"/>
       <use xlink:href="#CMMI12-3a" transform="translate(45.690477 0) scale(0.996264)"/>
       <use xlink:href="#CMR17-32" transform="translate(72.787654 0) scale(0.996264)"/>
      </g>
     </g>
    </g>
    <g id="ytick_4">
     <g id="line2d_73">
      <g>
       <use xlink:href="#m339aad08b5" x="32.685756" y="128.562852" style="stroke: #000000; stroke-width: 0.5"/>
      </g>
     </g>
     <g id="line2d_74">
      <g>
       <use xlink:href="#m0498f1e24b" x="367.485756" y="128.562852" style="stroke: #000000; stroke-width: 0.5"/>
      </g>
     </g>
     <g id="text_12">
      <!-- $\mathdefault{0.3}$ -->
      <g transform="translate(16.455677 132.022101) scale(0.1 -0.1)">
       <use xlink:href="#CMR17-30" transform="scale(0.996264)"/>
       <use xlink:href="#CMMI12-3a" transform="translate(45.690477 0) scale(0.996264)"/>
       <use xlink:href="#CMR17-33" transform="translate(72.787654 0) scale(0.996264)"/>
      </g>
     </g>
    </g>
    <g id="ytick_5">
     <g id="line2d_75">
      <g>
       <use xlink:href="#m339aad08b5" x="32.685756" y="94.857842" style="stroke: #000000; stroke-width: 0.5"/>
      </g>
     </g>
     <g id="line2d_76">
      <g>
       <use xlink:href="#m0498f1e24b" x="367.485756" y="94.857842" style="stroke: #000000; stroke-width: 0.5"/>
      </g>
     </g>
     <g id="text_13">
      <!-- $\mathdefault{0.4}$ -->
      <g transform="translate(16.455677 98.317091) scale(0.1 -0.1)">
       <defs>
        <path id="CMR17-34" d="M 2150 4122 
C 2150 4256 2144 4256 2029 4256 
L 128 1254 
L 128 1088 
L 1779 1088 
L 1779 457 
C 1779 224 1766 160 1318 160 
L 1197 160 
L 1197 0 
C 1402 0 1747 0 1965 0 
C 2182 0 2528 0 2733 0 
L 2733 160 
L 2611 160 
C 2163 160 2150 224 2150 457 
L 2150 1088 
L 2803 1088 
L 2803 1254 
L 2150 1254 
L 2150 4122 
z
M 1798 3703 
L 1798 1254 
L 256 1254 
L 1798 3703 
z
" transform="scale(0.015625)"/>
       </defs>
       <use xlink:href="#CMR17-30" transform="scale(0.996264)"/>
       <use xlink:href="#CMMI12-3a" transform="translate(45.690477 0) scale(0.996264)"/>
       <use xlink:href="#CMR17-34" transform="translate(72.787654 0) scale(0.996264)"/>
      </g>
     </g>
    </g>
    <g id="ytick_6">
     <g id="line2d_77">
      <g>
       <use xlink:href="#m339aad08b5" x="32.685756" y="61.152831" style="stroke: #000000; stroke-width: 0.5"/>
      </g>
     </g>
     <g id="line2d_78">
      <g>
       <use xlink:href="#m0498f1e24b" x="367.485756" y="61.152831" style="stroke: #000000; stroke-width: 0.5"/>
      </g>
     </g>
     <g id="text_14">
      <!-- $\mathdefault{0.5}$ -->
      <g transform="translate(16.455677 64.61208) scale(0.1 -0.1)">
       <defs>
        <path id="CMR17-35" d="M 730 3692 
C 794 3666 1056 3584 1325 3584 
C 1920 3584 2246 3911 2432 4100 
C 2432 4157 2432 4192 2394 4192 
C 2387 4192 2374 4192 2323 4163 
C 2099 4058 1837 3973 1517 3973 
C 1325 3973 1037 3999 723 4139 
C 653 4171 640 4171 634 4171 
C 602 4171 595 4164 595 4037 
L 595 2203 
C 595 2089 595 2057 659 2057 
C 691 2057 704 2070 736 2114 
C 941 2401 1222 2522 1542 2522 
C 1766 2522 2246 2382 2246 1289 
C 2246 1085 2246 715 2054 421 
C 1894 159 1645 25 1370 25 
C 947 25 518 320 403 814 
C 429 807 480 795 506 795 
C 589 795 749 840 749 1038 
C 749 1210 627 1280 506 1280 
C 358 1280 262 1190 262 1011 
C 262 454 704 -128 1382 -128 
C 2042 -128 2669 440 2669 1264 
C 2669 2030 2170 2624 1549 2624 
C 1222 2624 947 2503 730 2274 
L 730 3692 
z
" transform="scale(0.015625)"/>
       </defs>
       <use xlink:href="#CMR17-30" transform="scale(0.996264)"/>
       <use xlink:href="#CMMI12-3a" transform="translate(45.690477 0) scale(0.996264)"/>
       <use xlink:href="#CMR17-35" transform="translate(72.787654 0) scale(0.996264)"/>
      </g>
     </g>
    </g>
    <g id="ytick_7">
     <g id="line2d_79">
      <g>
       <use xlink:href="#m339aad08b5" x="32.685756" y="27.447821" style="stroke: #000000; stroke-width: 0.5"/>
      </g>
     </g>
     <g id="line2d_80">
      <g>
       <use xlink:href="#m0498f1e24b" x="367.485756" y="27.447821" style="stroke: #000000; stroke-width: 0.5"/>
      </g>
     </g>
     <g id="text_15">
      <!-- $\mathdefault{0.6}$ -->
      <g transform="translate(16.455677 30.90707) scale(0.1 -0.1)">
       <defs>
        <path id="CMR17-36" d="M 678 2176 
C 678 3690 1395 4032 1811 4032 
C 1946 4032 2272 4009 2400 3776 
C 2298 3776 2106 3776 2106 3553 
C 2106 3381 2246 3323 2336 3323 
C 2394 3323 2566 3348 2566 3560 
C 2566 3954 2246 4179 1805 4179 
C 1043 4179 243 3390 243 1984 
C 243 253 966 -128 1478 -128 
C 2099 -128 2688 427 2688 1283 
C 2688 2081 2170 2662 1517 2662 
C 1126 2662 838 2407 678 1960 
L 678 2176 
z
M 1478 25 
C 691 25 691 1200 691 1436 
C 691 1896 909 2560 1504 2560 
C 1613 2560 1926 2560 2138 2120 
C 2253 1870 2253 1609 2253 1289 
C 2253 944 2253 690 2118 434 
C 1978 171 1773 25 1478 25 
z
" transform="scale(0.015625)"/>
       </defs>
       <use xlink:href="#CMR17-30" transform="scale(0.996264)"/>
       <use xlink:href="#CMMI12-3a" transform="translate(45.690477 0) scale(0.996264)"/>
       <use xlink:href="#CMR17-36" transform="translate(72.787654 0) scale(0.996264)"/>
      </g>
     </g>
    </g>
    <g id="ytick_8">
     <g id="line2d_81">
      <defs>
       <path id="m5199729277" d="M 0 0 
L 1.5 0 
" style="stroke: #000000; stroke-width: 0.5"/>
      </defs>
      <g>
       <use xlink:href="#m5199729277" x="32.685756" y="236.418886" style="stroke: #000000; stroke-width: 0.5"/>
      </g>
     </g>
     <g id="line2d_82">
      <defs>
       <path id="mba4998469e" d="M 0 0 
L -1.5 0 
" style="stroke: #000000; stroke-width: 0.5"/>
      </defs>
      <g>
       <use xlink:href="#mba4998469e" x="367.485756" y="236.418886" style="stroke: #000000; stroke-width: 0.5"/>
      </g>
     </g>
    </g>
    <g id="ytick_9">
     <g id="line2d_83">
      <g>
       <use xlink:href="#m5199729277" x="32.685756" y="222.936881" style="stroke: #000000; stroke-width: 0.5"/>
      </g>
     </g>
     <g id="line2d_84">
      <g>
       <use xlink:href="#mba4998469e" x="367.485756" y="222.936881" style="stroke: #000000; stroke-width: 0.5"/>
      </g>
     </g>
    </g>
    <g id="ytick_10">
     <g id="line2d_85">
      <g>
       <use xlink:href="#m5199729277" x="32.685756" y="216.195879" style="stroke: #000000; stroke-width: 0.5"/>
      </g>
     </g>
     <g id="line2d_86">
      <g>
       <use xlink:href="#mba4998469e" x="367.485756" y="216.195879" style="stroke: #000000; stroke-width: 0.5"/>
      </g>
     </g>
    </g>
    <g id="ytick_11">
     <g id="line2d_87">
      <g>
       <use xlink:href="#m5199729277" x="32.685756" y="209.454877" style="stroke: #000000; stroke-width: 0.5"/>
      </g>
     </g>
     <g id="line2d_88">
      <g>
       <use xlink:href="#mba4998469e" x="367.485756" y="209.454877" style="stroke: #000000; stroke-width: 0.5"/>
      </g>
     </g>
    </g>
    <g id="ytick_12">
     <g id="line2d_89">
      <g>
       <use xlink:href="#m5199729277" x="32.685756" y="202.713875" style="stroke: #000000; stroke-width: 0.5"/>
      </g>
     </g>
     <g id="line2d_90">
      <g>
       <use xlink:href="#mba4998469e" x="367.485756" y="202.713875" style="stroke: #000000; stroke-width: 0.5"/>
      </g>
     </g>
    </g>
    <g id="ytick_13">
     <g id="line2d_91">
      <g>
       <use xlink:href="#m5199729277" x="32.685756" y="189.231871" style="stroke: #000000; stroke-width: 0.5"/>
      </g>
     </g>
     <g id="line2d_92">
      <g>
       <use xlink:href="#mba4998469e" x="367.485756" y="189.231871" style="stroke: #000000; stroke-width: 0.5"/>
      </g>
     </g>
    </g>
    <g id="ytick_14">
     <g id="line2d_93">
      <g>
       <use xlink:href="#m5199729277" x="32.685756" y="182.490869" style="stroke: #000000; stroke-width: 0.5"/>
      </g>
     </g>
     <g id="line2d_94">
      <g>
       <use xlink:href="#mba4998469e" x="367.485756" y="182.490869" style="stroke: #000000; stroke-width: 0.5"/>
      </g>
     </g>
    </g>
    <g id="ytick_15">
     <g id="line2d_95">
      <g>
       <use xlink:href="#m5199729277" x="32.685756" y="175.749867" style="stroke: #000000; stroke-width: 0.5"/>
      </g>
     </g>
     <g id="line2d_96">
      <g>
       <use xlink:href="#mba4998469e" x="367.485756" y="175.749867" style="stroke: #000000; stroke-width: 0.5"/>
      </g>
     </g>
    </g>
    <g id="ytick_16">
     <g id="line2d_97">
      <g>
       <use xlink:href="#m5199729277" x="32.685756" y="169.008865" style="stroke: #000000; stroke-width: 0.5"/>
      </g>
     </g>
     <g id="line2d_98">
      <g>
       <use xlink:href="#mba4998469e" x="367.485756" y="169.008865" style="stroke: #000000; stroke-width: 0.5"/>
      </g>
     </g>
    </g>
    <g id="ytick_17">
     <g id="line2d_99">
      <g>
       <use xlink:href="#m5199729277" x="32.685756" y="155.52686" style="stroke: #000000; stroke-width: 0.5"/>
      </g>
     </g>
     <g id="line2d_100">
      <g>
       <use xlink:href="#mba4998469e" x="367.485756" y="155.52686" style="stroke: #000000; stroke-width: 0.5"/>
      </g>
     </g>
    </g>
    <g id="ytick_18">
     <g id="line2d_101">
      <g>
       <use xlink:href="#m5199729277" x="32.685756" y="148.785858" style="stroke: #000000; stroke-width: 0.5"/>
      </g>
     </g>
     <g id="line2d_102">
      <g>
       <use xlink:href="#mba4998469e" x="367.485756" y="148.785858" style="stroke: #000000; stroke-width: 0.5"/>
      </g>
     </g>
    </g>
    <g id="ytick_19">
     <g id="line2d_103">
      <g>
       <use xlink:href="#m5199729277" x="32.685756" y="142.044856" style="stroke: #000000; stroke-width: 0.5"/>
      </g>
     </g>
     <g id="line2d_104">
      <g>
       <use xlink:href="#mba4998469e" x="367.485756" y="142.044856" style="stroke: #000000; stroke-width: 0.5"/>
      </g>
     </g>
    </g>
    <g id="ytick_20">
     <g id="line2d_105">
      <g>
       <use xlink:href="#m5199729277" x="32.685756" y="135.303854" style="stroke: #000000; stroke-width: 0.5"/>
      </g>
     </g>
     <g id="line2d_106">
      <g>
       <use xlink:href="#mba4998469e" x="367.485756" y="135.303854" style="stroke: #000000; stroke-width: 0.5"/>
      </g>
     </g>
    </g>
    <g id="ytick_21">
     <g id="line2d_107">
      <g>
       <use xlink:href="#m5199729277" x="32.685756" y="121.82185" style="stroke: #000000; stroke-width: 0.5"/>
      </g>
     </g>
     <g id="line2d_108">
      <g>
       <use xlink:href="#mba4998469e" x="367.485756" y="121.82185" style="stroke: #000000; stroke-width: 0.5"/>
      </g>
     </g>
    </g>
    <g id="ytick_22">
     <g id="line2d_109">
      <g>
       <use xlink:href="#m5199729277" x="32.685756" y="115.080848" style="stroke: #000000; stroke-width: 0.5"/>
      </g>
     </g>
     <g id="line2d_110">
      <g>
       <use xlink:href="#mba4998469e" x="367.485756" y="115.080848" style="stroke: #000000; stroke-width: 0.5"/>
      </g>
     </g>
    </g>
    <g id="ytick_23">
     <g id="line2d_111">
      <g>
       <use xlink:href="#m5199729277" x="32.685756" y="108.339846" style="stroke: #000000; stroke-width: 0.5"/>
      </g>
     </g>
     <g id="line2d_112">
      <g>
       <use xlink:href="#mba4998469e" x="367.485756" y="108.339846" style="stroke: #000000; stroke-width: 0.5"/>
      </g>
     </g>
    </g>
    <g id="ytick_24">
     <g id="line2d_113">
      <g>
       <use xlink:href="#m5199729277" x="32.685756" y="101.598844" style="stroke: #000000; stroke-width: 0.5"/>
      </g>
     </g>
     <g id="line2d_114">
      <g>
       <use xlink:href="#mba4998469e" x="367.485756" y="101.598844" style="stroke: #000000; stroke-width: 0.5"/>
      </g>
     </g>
    </g>
    <g id="ytick_25">
     <g id="line2d_115">
      <g>
       <use xlink:href="#m5199729277" x="32.685756" y="88.116839" style="stroke: #000000; stroke-width: 0.5"/>
      </g>
     </g>
     <g id="line2d_116">
      <g>
       <use xlink:href="#mba4998469e" x="367.485756" y="88.116839" style="stroke: #000000; stroke-width: 0.5"/>
      </g>
     </g>
    </g>
    <g id="ytick_26">
     <g id="line2d_117">
      <g>
       <use xlink:href="#m5199729277" x="32.685756" y="81.375837" style="stroke: #000000; stroke-width: 0.5"/>
      </g>
     </g>
     <g id="line2d_118">
      <g>
       <use xlink:href="#mba4998469e" x="367.485756" y="81.375837" style="stroke: #000000; stroke-width: 0.5"/>
      </g>
     </g>
    </g>
    <g id="ytick_27">
     <g id="line2d_119">
      <g>
       <use xlink:href="#m5199729277" x="32.685756" y="74.634835" style="stroke: #000000; stroke-width: 0.5"/>
      </g>
     </g>
     <g id="line2d_120">
      <g>
       <use xlink:href="#mba4998469e" x="367.485756" y="74.634835" style="stroke: #000000; stroke-width: 0.5"/>
      </g>
     </g>
    </g>
    <g id="ytick_28">
     <g id="line2d_121">
      <g>
       <use xlink:href="#m5199729277" x="32.685756" y="67.893833" style="stroke: #000000; stroke-width: 0.5"/>
      </g>
     </g>
     <g id="line2d_122">
      <g>
       <use xlink:href="#mba4998469e" x="367.485756" y="67.893833" style="stroke: #000000; stroke-width: 0.5"/>
      </g>
     </g>
    </g>
    <g id="ytick_29">
     <g id="line2d_123">
      <g>
       <use xlink:href="#m5199729277" x="32.685756" y="54.411829" style="stroke: #000000; stroke-width: 0.5"/>
      </g>
     </g>
     <g id="line2d_124">
      <g>
       <use xlink:href="#mba4998469e" x="367.485756" y="54.411829" style="stroke: #000000; stroke-width: 0.5"/>
      </g>
     </g>
    </g>
    <g id="ytick_30">
     <g id="line2d_125">
      <g>
       <use xlink:href="#m5199729277" x="32.685756" y="47.670827" style="stroke: #000000; stroke-width: 0.5"/>
      </g>
     </g>
     <g id="line2d_126">
      <g>
       <use xlink:href="#mba4998469e" x="367.485756" y="47.670827" style="stroke: #000000; stroke-width: 0.5"/>
      </g>
     </g>
    </g>
    <g id="ytick_31">
     <g id="line2d_127">
      <g>
       <use xlink:href="#m5199729277" x="32.685756" y="40.929825" style="stroke: #000000; stroke-width: 0.5"/>
      </g>
     </g>
     <g id="line2d_128">
      <g>
       <use xlink:href="#mba4998469e" x="367.485756" y="40.929825" style="stroke: #000000; stroke-width: 0.5"/>
      </g>
     </g>
    </g>
    <g id="ytick_32">
     <g id="line2d_129">
      <g>
       <use xlink:href="#m5199729277" x="32.685756" y="34.188823" style="stroke: #000000; stroke-width: 0.5"/>
      </g>
     </g>
     <g id="line2d_130">
      <g>
       <use xlink:href="#mba4998469e" x="367.485756" y="34.188823" style="stroke: #000000; stroke-width: 0.5"/>
      </g>
     </g>
    </g>
    <g id="ytick_33">
     <g id="line2d_131">
      <g>
       <use xlink:href="#m5199729277" x="32.685756" y="20.706818" style="stroke: #000000; stroke-width: 0.5"/>
      </g>
     </g>
     <g id="line2d_132">
      <g>
       <use xlink:href="#mba4998469e" x="367.485756" y="20.706818" style="stroke: #000000; stroke-width: 0.5"/>
      </g>
     </g>
    </g>
    <g id="text_16">
     <!-- Density -->
     <g transform="translate(10.518498 145.345099) rotate(-90) scale(0.1 -0.1)">
      <defs>
       <path id="CMR17-44" d="M 333 4352 
L 333 4186 
C 774 4186 845 4186 845 3900 
L 845 452 
C 845 166 774 166 333 166 
L 333 0 
L 2368 0 
C 3398 0 4224 943 4224 2141 
C 4224 3346 3411 4352 2368 4352 
L 333 4352 
z
M 1523 166 
C 1267 166 1254 197 1254 414 
L 1254 3938 
C 1254 4155 1267 4186 1523 4186 
L 2240 4186 
C 2771 4186 3750 3874 3750 2141 
C 3750 1242 3488 879 3366 707 
C 3213 510 2848 166 2240 166 
L 1523 166 
z
" transform="scale(0.015625)"/>
       <path id="CMR17-65" d="M 2438 1472 
C 2464 1498 2464 1511 2464 1576 
C 2464 2238 2118 2816 1389 2816 
C 710 2816 173 2169 173 1383 
C 173 551 781 -64 1459 -64 
C 2176 -64 2458 607 2458 740 
C 2458 784 2419 784 2406 784 
C 2362 784 2355 771 2330 696 
C 2189 265 1837 51 1504 51 
C 1229 51 954 203 781 480 
C 582 803 582 1176 582 1472 
L 2438 1472 
z
M 589 1568 
C 634 2505 1126 2714 1382 2714 
C 1818 2714 2112 2297 2118 1568 
L 589 1568 
z
" transform="scale(0.015625)"/>
       <path id="CMR17-6e" d="M 2656 1933 
C 2656 2259 2592 2790 1837 2790 
C 1331 2790 1069 2400 973 2144 
L 966 2144 
L 966 2790 
L 211 2720 
L 211 2554 
C 589 2554 646 2515 646 2208 
L 646 428 
C 646 184 621 153 211 153 
L 211 -13 
C 365 0 646 0 813 0 
C 979 0 1267 0 1421 -13 
L 1421 153 
C 1011 153 986 178 986 428 
L 986 1658 
C 986 2247 1344 2688 1792 2688 
C 2266 2688 2317 2266 2317 1958 
L 2317 428 
C 2317 184 2291 153 1882 153 
L 1882 -13 
C 2035 0 2317 0 2483 0 
C 2650 0 2938 0 3091 -13 
L 3091 153 
C 2682 153 2656 178 2656 428 
L 2656 1933 
z
" transform="scale(0.015625)"/>
       <path id="CMR17-73" d="M 1978 2697 
C 1978 2813 1971 2819 1933 2819 
C 1907 2819 1901 2813 1824 2717 
C 1805 2691 1747 2626 1728 2601 
C 1523 2819 1235 2819 1126 2819 
C 416 2819 160 2447 160 2076 
C 160 1498 813 1365 998 1325 
C 1402 1243 1542 1217 1677 1101 
C 1760 1025 1901 884 1901 654 
C 1901 384 1747 38 1158 38 
C 602 38 403 460 288 1021 
C 269 1110 269 1117 218 1117 
C 166 1117 160 1110 160 983 
L 160 63 
C 160 -51 166 -58 205 -58 
C 237 -58 243 -51 275 0 
C 314 57 410 211 448 276 
C 576 103 800 -64 1158 -64 
C 1792 -64 2131 283 2131 784 
C 2131 1112 1958 1285 1875 1362 
C 1683 1561 1459 1606 1190 1657 
C 838 1735 390 1825 390 2217 
C 390 2383 480 2737 1126 2737 
C 1811 2737 1850 2094 1862 1888 
C 1869 1856 1901 1849 1920 1849 
C 1978 1849 1978 1869 1978 1978 
L 1978 2697 
z
" transform="scale(0.015625)"/>
       <path id="CMR17-69" d="M 992 3909 
C 992 4049 877 4170 730 4170 
C 589 4170 467 4056 467 3909 
C 467 3769 582 3648 730 3648 
C 870 3648 992 3763 992 3909 
z
M 243 2706 
L 243 2541 
C 602 2541 653 2502 653 2197 
L 653 427 
C 653 184 627 153 218 153 
L 218 -13 
C 371 0 646 0 806 0 
C 960 0 1222 0 1370 -13 
L 1370 153 
C 992 153 979 191 979 420 
L 979 2776 
L 243 2706 
z
" transform="scale(0.015625)"/>
       <path id="CMR17-74" d="M 966 2560 
L 1862 2560 
L 1862 2725 
L 966 2725 
L 966 3904 
L 851 3904 
C 838 3245 614 2668 70 2668 
L 70 2560 
L 627 2560 
L 627 771 
C 627 650 627 -64 1370 -64 
C 1747 -64 1965 306 1965 777 
L 1965 1140 
L 1850 1140 
L 1850 783 
C 1850 344 1677 51 1408 51 
C 1222 51 966 178 966 758 
L 966 2560 
z
" transform="scale(0.015625)"/>
       <path id="CMR17-79" d="M 2496 2197 
C 2656 2586 2944 2586 3034 2586 
L 3034 2752 
C 2912 2752 2752 2752 2630 2752 
C 2496 2752 2285 2752 2157 2758 
L 2157 2592 
C 2400 2573 2406 2394 2406 2343 
C 2406 2280 2394 2248 2362 2171 
L 1664 449 
L 902 2306 
C 870 2382 870 2426 870 2433 
C 870 2573 1018 2586 1171 2586 
L 1171 2758 
C 1018 2752 742 2752 582 2752 
C 410 2752 205 2752 64 2758 
L 64 2586 
C 410 2586 448 2554 531 2350 
L 1485 15 
C 1197 -738 1030 -1178 627 -1178 
C 557 -1178 397 -1159 282 -1044 
C 429 -1031 493 -942 493 -833 
C 493 -725 416 -629 288 -629 
C 147 -629 77 -725 77 -840 
C 77 -1095 339 -1280 627 -1280 
C 998 -1280 1229 -922 1357 -604 
L 2496 2197 
z
" transform="scale(0.015625)"/>
      </defs>
      <use xlink:href="#CMR17-44" transform="scale(0.996264)"/>
      <use xlink:href="#CMR17-65" transform="translate(70.393556 0) scale(0.996264)"/>
      <use xlink:href="#CMR17-6e" transform="translate(110.879216 0) scale(0.996264)"/>
      <use xlink:href="#CMR17-73" transform="translate(161.774586 0) scale(0.996264)"/>
      <use xlink:href="#CMR17-69" transform="translate(197.575924 0) scale(0.996264)"/>
      <use xlink:href="#CMR17-74" transform="translate(222.446982 0) scale(0.996264)"/>
      <use xlink:href="#CMR17-79" transform="translate(255.125296 0) scale(0.996264)"/>
     </g>
    </g>
   </g>
   <g id="line2d_133">
    <path d="M 47.903938 229.58218 
L 50.034691 229.332399 
L 51.830626 228.896414 
L 54.296211 228.029603 
L 56.640043 227.291289 
L 58.862121 226.854493 
L 63.915069 226.131541 
L 65.406602 226.200935 
L 67.141641 226.525934 
L 69.728992 227.009305 
L 71.129201 227.020238 
L 72.833811 226.789018 
L 75.542915 226.416646 
L 77.034448 226.467067 
L 79.043448 226.793428 
L 80.7785 226.991245 
L 81.874318 226.894499 
L 82.909254 226.58035 
L 84.035514 225.996964 
L 85.466163 224.98719 
L 87.809995 223.022762 
L 90.48867 220.495328 
L 92.649865 218.531798 
L 93.806567 217.778398 
L 94.780619 217.40236 
L 95.693801 217.288193 
L 96.606983 217.402679 
L 97.581048 217.754446 
L 98.768185 218.433641 
L 101.385977 220.024114 
L 102.146958 220.187146 
L 102.816627 220.108309 
L 103.455854 219.809189 
L 104.155958 219.225074 
L 105.008263 218.19509 
L 106.469354 215.992751 
L 107.656491 214.388496 
L 108.387036 213.7429 
L 108.995828 213.484761 
L 109.543738 213.491412 
L 110.091647 213.722588 
L 110.730874 214.249258 
L 111.552738 215.242918 
L 114.627115 219.286954 
L 115.296784 219.686913 
L 115.875135 219.795212 
L 116.423044 219.681381 
L 117.001388 219.328694 
L 117.640616 218.66679 
L 118.401603 217.531878 
L 119.345226 215.679889 
L 120.714999 212.421846 
L 122.876194 207.308962 
L 123.911136 205.45131 
L 124.793876 204.300399 
L 125.676623 203.507283 
L 126.833318 202.798396 
L 128.324851 201.857296 
L 129.207591 201.014253 
L 130.120773 199.813774 
L 131.155715 198.05388 
L 132.464611 195.345269 
L 133.986579 191.66791 
L 135.173715 188.232487 
L 136.117339 184.813987 
L 136.969638 180.880514 
L 137.821943 175.842838 
L 138.704689 169.190865 
L 139.648307 160.281342 
L 140.744125 147.64981 
L 142.235658 127.539577 
L 144.549054 96.441304 
L 145.523113 86.37682 
L 146.253658 80.882022 
L 146.832009 77.974101 
L 147.2886 76.627545 
L 147.623431 76.177635 
L 147.86695 76.133317 
L 148.110464 76.322864 
L 148.41486 76.879922 
L 148.810568 78.113142 
L 149.328042 80.531355 
L 149.997707 84.849236 
L 150.880448 92.157747 
L 152.219782 105.385884 
L 155.324604 136.513438 
L 156.633497 147.197107 
L 157.668436 153.968293 
L 158.520741 158.171471 
L 159.190407 160.453245 
L 159.707877 161.52877 
L 160.103589 161.917341 
L 160.407985 161.949575 
L 160.712378 161.744267 
L 161.07765 161.180097 
L 161.534241 159.986128 
L 162.082151 157.849452 
L 162.751816 154.253954 
L 163.604121 148.314886 
L 164.76082 138.500455 
L 168.383109 106.673687 
L 170.118155 94.308716 
L 173.923081 69.09662 
L 174.714506 65.338461 
L 175.292854 63.541734 
L 175.719005 62.862158 
L 175.992959 62.749022 
L 176.236475 62.874613 
L 176.540868 63.342172 
L 176.906141 64.370416 
L 177.362732 66.378075 
L 177.941081 70.044445 
L 178.641188 76.021819 
L 179.55437 85.873281 
L 181.045901 104.819835 
L 183.207098 131.842982 
L 184.363796 143.620027 
L 185.307418 151.11256 
L 186.068404 155.499448 
L 186.646751 157.707508 
L 187.103342 158.69519 
L 187.438177 158.967261 
L 187.681691 158.914229 
L 187.955647 158.594355 
L 188.290479 157.820051 
L 188.716631 156.212228 
L 189.234101 153.313754 
L 189.873329 148.323248 
L 190.634314 140.485322 
L 191.608375 127.947047 
L 193.160784 104.592198 
L 195.108907 76.031562 
L 196.204726 63.050479 
L 197.117908 54.701811 
L 197.878893 49.670453 
L 198.487681 46.996306 
L 198.944272 45.819328 
L 199.309545 45.408272 
L 199.55306 45.402667 
L 199.796575 45.615337 
L 200.100981 46.191792 
L 200.496694 47.461022 
L 200.983724 49.829182 
L 201.592512 54.011286 
L 202.323058 60.698783 
L 203.26668 71.59457 
L 204.727771 91.513669 
L 206.828091 119.75536 
L 207.923909 131.601684 
L 208.837091 139.239938 
L 209.598076 143.903714 
L 210.237304 146.581412 
L 210.754774 147.90626 
L 211.150486 148.406907 
L 211.45488 148.489255 
L 211.728835 148.338662 
L 212.063668 147.86696 
L 212.48982 146.813815 
L 213.007289 144.868364 
L 213.646517 141.501221 
L 214.437942 135.989507 
L 215.442442 127.247421 
L 217.055731 110.896925 
L 219.003853 91.748328 
L 220.13011 82.797078 
L 221.073732 76.956324 
L 221.895596 73.167115 
L 222.595703 70.884267 
L 223.20449 69.590376 
L 223.691521 69.009441 
L 224.087234 68.830773 
L 224.452507 68.89725 
L 224.848219 69.217942 
L 225.30481 69.906428 
L 225.85272 71.176301 
L 226.491947 73.252246 
L 227.252931 76.509879 
L 228.196554 81.592677 
L 229.475009 89.823609 
L 232.762464 111.544357 
L 233.919162 117.422006 
L 234.984542 121.715326 
L 236.019481 124.975602 
L 237.023981 127.427877 
L 237.937163 129.117938 
L 238.728588 130.152299 
L 239.367816 130.649028 
L 239.885286 130.787909 
L 240.341877 130.68302 
L 240.798468 130.335839 
L 241.285498 129.666599 
L 241.833407 128.505221 
L 242.442196 126.662327 
L 243.142303 123.782311 
L 243.964167 119.362314 
L 244.968667 112.60596 
L 246.642833 99.482822 
L 248.043047 89.2732 
L 248.864911 84.787299 
L 249.4737 82.538934 
L 249.960729 81.501741 
L 250.295564 81.205035 
L 250.569518 81.219379 
L 250.84347 81.464836 
L 251.208743 82.145617 
L 251.665334 83.541935 
L 252.243684 86.10827 
L 253.004671 90.62509 
L 254.100489 98.674541 
L 257.448821 124.151651 
L 259.518704 137.210703 
L 261.223309 148.561186 
L 262.6844 159.903885 
L 265.180433 181.51972 
L 266.854602 194.946942 
L 268.011297 202.554988 
L 268.985355 207.575797 
L 269.807219 210.744062 
L 270.537771 212.731919 
L 271.146557 213.80928 
L 271.664024 214.330883 
L 272.120615 214.508083 
L 272.546771 214.450147 
L 273.033797 214.141291 
L 273.612148 213.474431 
L 274.312252 212.300188 
L 275.255875 210.248371 
L 278.634649 202.465782 
L 279.395636 201.423363 
L 280.065304 200.862603 
L 280.67409 200.640465 
L 281.252441 200.661062 
L 281.922104 200.92184 
L 282.743968 201.500862 
L 283.931104 202.636015 
L 285.605273 204.549466 
L 286.914169 206.363845 
L 288.101306 208.401651 
L 289.50152 211.288653 
L 292.484579 217.583274 
L 293.610839 219.362152 
L 294.64578 220.59957 
L 295.741599 221.568215 
L 297.111372 222.464347 
L 299.120372 223.489894 
L 300.794535 224.129085 
L 301.95123 224.344276 
L 302.894853 224.303723 
L 303.777594 224.04528 
L 304.660347 223.551449 
L 305.634399 222.738743 
L 306.882425 221.374002 
L 309.439334 218.491136 
L 310.322075 217.868297 
L 311.05262 217.608637 
L 311.752724 217.59792 
L 312.452829 217.816558 
L 313.244257 218.310782 
L 314.218322 219.198919 
L 315.862049 221.056243 
L 317.840608 223.195356 
L 319.119063 224.253977 
L 320.336635 224.978708 
L 321.645531 225.494129 
L 323.3197 225.897605 
L 328.950987 226.862525 
L 330.412078 226.888965 
L 331.842727 226.682195 
L 335.434584 226.020231 
L 336.530403 226.1396 
L 337.717533 226.502827 
L 339.787416 227.431665 
L 341.30939 227.988409 
L 342.496521 228.188636 
L 343.744534 228.165031 
L 345.905742 227.839856 
L 347.519028 227.716296 
L 348.949677 227.83533 
L 352.267574 228.357199 
L 352.267574 228.357199 
" clip-path="url(#p307fbf2324)" style="fill: none; stroke: #0c5da5; stroke-linecap: square"/>
   </g>
   <g id="line2d_134">
    <path d="M 47.903938 228.931006 
L 57.035757 228.416768 
L 64.706485 227.768105 
L 71.464044 226.976862 
L 77.551916 226.042461 
L 83.152773 224.960131 
L 88.418787 223.716868 
L 93.410852 222.310741 
L 98.220281 220.725576 
L 102.907945 218.946111 
L 107.504296 216.964149 
L 112.100647 214.739309 
L 116.727434 212.25147 
L 121.445544 209.461324 
L 126.285409 206.340802 
L 129.907701 203.770408 
L 131.794942 202.176389 
L 133.042955 200.842839 
L 134.047455 199.452955 
L 134.930202 197.856515 
L 135.752066 195.911262 
L 136.57393 193.359738 
L 137.365352 190.1537 
L 138.187216 185.84536 
L 139.039521 180.102418 
L 139.922261 172.567475 
L 140.896326 162.197 
L 141.992144 147.932347 
L 143.331476 127.337092 
L 146.740691 73.302339 
L 147.623431 63.470043 
L 148.2931 58.225413 
L 148.810568 55.658445 
L 149.206282 54.618659 
L 149.480237 54.376497 
L 149.693311 54.458946 
L 149.936827 54.841515 
L 150.271662 55.862195 
L 150.697811 57.963945 
L 151.245724 61.907774 
L 151.945828 68.753136 
L 152.85901 80.103624 
L 154.320101 101.540625 
L 156.481299 132.829811 
L 157.637997 146.349963 
L 158.581618 154.969792 
L 159.403484 160.598514 
L 160.103589 164.016338 
L 160.712378 165.980925 
L 161.199407 166.892799 
L 161.595121 167.208705 
L 161.899514 167.194672 
L 162.203907 166.957945 
L 162.56918 166.379837 
L 163.025774 165.204014 
L 163.573683 163.121003 
L 164.21291 159.746718 
L 164.943456 154.616122 
L 165.76532 147.190804 
L 166.70894 136.52962 
L 167.8352 121.070355 
L 169.387609 96.289003 
L 171.701002 59.568734 
L 172.675064 47.625979 
L 173.40561 41.118185 
L 173.983957 37.733725 
L 174.41011 36.318884 
L 174.714506 35.886111 
L 174.927581 35.871928 
L 175.140656 36.095044 
L 175.44505 36.82161 
L 175.840763 38.467684 
L 176.327794 41.533923 
L 176.967021 47.153046 
L 177.788885 56.622853 
L 178.915143 72.47884 
L 182.385234 123.151985 
L 183.450614 134.746122 
L 184.363796 142.408524 
L 185.15522 147.307656 
L 185.824887 150.209862 
L 186.403236 151.821618 
L 186.859827 152.519882 
L 187.2251 152.718037 
L 187.529495 152.639647 
L 187.864328 152.29781 
L 188.26004 151.547387 
L 188.747071 150.103949 
L 189.325419 147.63309 
L 189.995087 143.723218 
L 190.756071 137.884533 
L 191.638814 129.241922 
L 192.643315 117.069521 
L 193.89133 99.040877 
L 197.635378 42.863041 
L 198.426802 35.017611 
L 199.06603 30.684171 
L 199.55306 28.724476 
L 199.918333 28.055126 
L 200.16186 27.996765 
L 200.374936 28.200917 
L 200.648891 28.811565 
L 201.014164 30.225643 
L 201.501194 33.140545 
L 202.109982 38.323098 
L 202.870967 46.891398 
L 203.905907 61.356159 
L 206.158423 97.152129 
L 207.649954 118.668736 
L 208.745773 131.509924 
L 209.689394 140.158874 
L 210.511258 145.820447 
L 211.241804 149.413148 
L 211.850592 151.398457 
L 212.337623 152.339963 
L 212.733335 152.686386 
L 213.037729 152.69841 
L 213.342124 152.488944 
L 213.707397 151.943798 
L 214.163988 150.807467 
L 214.711897 148.766343 
L 215.351124 145.431278 
L 216.08167 140.336106 
L 216.903533 132.956858 
L 217.877595 122.033317 
L 219.064732 105.968487 
L 223.20449 47.153046 
L 223.935036 40.874979 
L 224.513385 37.610977 
L 224.939538 36.262955 
L 225.243931 35.871948 
L 225.457005 35.886131 
L 225.670083 36.138157 
L 225.974476 36.909242 
L 226.37019 38.623922 
L 226.85722 41.800514 
L 227.496447 47.625979 
L 228.287873 57.088192 
L 229.353249 72.737235 
L 233.584328 138.029571 
L 234.619269 149.284428 
L 235.532451 156.920984 
L 236.323874 161.800654 
L 236.993543 164.6994 
L 237.57189 166.317137 
L 238.028481 167.023091 
L 238.393754 167.227032 
L 238.69815 167.151831 
L 239.032981 166.810506 
L 239.428695 166.054961 
L 239.915725 164.594395 
L 240.494072 162.085396 
L 241.163741 158.107877 
L 241.924725 152.172666 
L 242.807469 143.427798 
L 243.842407 130.835873 
L 245.242622 110.793985 
L 247.829969 73.383623 
L 248.743151 63.510283 
L 249.443259 58.147364 
L 249.960729 55.634558 
L 250.35644 54.611969 
L 250.630395 54.375895 
L 250.84347 54.462622 
L 251.086989 54.852022 
L 251.42182 55.89016 
L 251.84797 58.037453 
L 252.395879 62.09725 
L 253.065548 68.869696 
L 253.917853 79.897152 
L 255.135431 98.837549 
L 258.422886 151.329037 
L 259.579581 165.675269 
L 260.614523 175.893284 
L 261.55814 183.149818 
L 262.471322 188.530586 
L 263.354069 192.460172 
L 264.236809 195.402896 
L 265.119556 197.599994 
L 266.063173 199.355876 
L 267.098115 200.805718 
L 268.315693 202.11828 
L 269.928979 203.50949 
L 272.455453 205.362526 
L 276.777843 208.236742 
L 281.648149 211.219147 
L 286.36626 213.851693 
L 291.023488 216.196681 
L 295.650281 218.277717 
L 300.307509 220.128703 
L 305.056049 221.77577 
L 309.956802 223.237755 
L 315.040179 224.520233 
L 320.397518 225.64058 
L 326.120129 226.607952 
L 332.360207 227.433437 
L 339.269949 228.118958 
L 347.153755 228.672374 
L 352.267574 228.931006 
L 352.267574 228.931006 
" clip-path="url(#p307fbf2324)" style="fill: none; stroke: #00b945; stroke-linecap: square"/>
   </g>
   <g id="patch_3">
    <path d="M 32.685756 239.66218 
L 32.685756 17.90218 
" style="fill: none; stroke: #000000; stroke-width: 0.5; stroke-linejoin: miter; stroke-linecap: square"/>
   </g>
   <g id="patch_4">
    <path d="M 367.485756 239.66218 
L 367.485756 17.90218 
" style="fill: none; stroke: #000000; stroke-width: 0.5; stroke-linejoin: miter; stroke-linecap: square"/>
   </g>
   <g id="patch_5">
    <path d="M 32.685756 239.66218 
L 367.485756 239.66218 
" style="fill: none; stroke: #000000; stroke-width: 0.5; stroke-linejoin: miter; stroke-linecap: square"/>
   </g>
   <g id="patch_6">
    <path d="M 32.685756 17.90218 
L 367.485756 17.90218 
" style="fill: none; stroke: #000000; stroke-width: 0.5; stroke-linejoin: miter; stroke-linecap: square"/>
   </g>
   <g id="text_17">
    <!-- Kernel Density Estimation -->
    <g transform="translate(131.739979 11.90218) scale(0.12 -0.12)">
     <defs>
      <path id="CMR17-4b" d="M 2362 2675 
L 3469 3782 
C 3699 4006 3942 4186 4301 4186 
L 4301 4352 
C 4173 4352 4013 4352 3885 4352 
C 3712 4352 3411 4352 3245 4358 
L 3245 4192 
C 3411 4180 3437 4065 3437 4019 
C 3437 3975 3411 3905 3386 3867 
L 1261 1738 
L 1261 3900 
C 1261 4186 1331 4186 1773 4186 
L 1773 4352 
C 1587 4352 1248 4352 1050 4352 
C 851 4352 512 4352 326 4352 
L 326 4186 
C 768 4186 838 4186 838 3899 
L 838 446 
C 838 160 768 160 326 160 
L 326 0 
C 512 0 851 0 1050 0 
C 1248 0 1587 0 1773 0 
L 1773 160 
C 1331 160 1261 160 1261 447 
L 1261 1579 
L 2080 2390 
L 3290 537 
C 3328 473 3373 390 3373 326 
C 3373 160 3194 160 3110 160 
L 3110 0 
C 3315 0 3610 0 3821 0 
C 3974 0 4237 0 4384 -6 
L 4384 160 
C 4077 160 3981 198 3789 493 
L 2362 2675 
z
" transform="scale(0.015625)"/>
      <path id="CMR17-72" d="M 960 1497 
C 960 2112 1222 2688 1702 2688 
C 1747 2688 1792 2682 1837 2662 
C 1837 2662 1696 2617 1696 2452 
C 1696 2298 1818 2234 1914 2234 
C 1990 2234 2131 2279 2131 2458 
C 2131 2663 1926 2790 1709 2790 
C 1222 2790 1011 2317 947 2093 
L 941 2093 
L 941 2790 
L 198 2720 
L 198 2554 
C 576 2554 634 2515 634 2208 
L 634 428 
C 634 184 608 153 198 153 
L 198 -13 
C 352 0 646 0 813 0 
C 998 0 1325 0 1498 -13 
L 1498 153 
C 1037 153 960 153 960 440 
L 960 1497 
z
" transform="scale(0.015625)"/>
      <path id="CMR17-6c" d="M 979 4396 
L 218 4326 
L 218 4160 
C 595 4160 653 4122 653 3817 
L 653 426 
C 653 184 627 153 218 153 
L 218 -13 
C 371 0 653 0 813 0 
C 979 0 1261 0 1414 -13 
L 1414 153 
C 1005 153 979 178 979 426 
L 979 4396 
z
" transform="scale(0.015625)"/>
      <path id="CMR17-45" d="M 3885 1615 
L 3770 1615 
C 3629 676 3546 166 2419 166 
L 1530 166 
C 1274 166 1261 197 1261 414 
L 1261 2176 
L 1862 2176 
C 2464 2176 2522 1960 2522 1430 
L 2637 1430 
L 2637 3081 
L 2522 3081 
C 2522 2557 2464 2342 1862 2342 
L 1261 2342 
L 1261 3913 
C 1261 4128 1274 4160 1530 4160 
L 2406 4160 
C 3398 4160 3514 3769 3603 2929 
L 3718 2929 
L 3565 4325 
L 326 4325 
L 326 4160 
C 768 4160 838 4160 838 3874 
L 838 451 
C 838 166 768 166 326 166 
L 326 0 
L 3654 0 
L 3885 1615 
z
" transform="scale(0.015625)"/>
      <path id="CMR17-6d" d="M 4326 1933 
C 4326 2252 4269 2790 3507 2790 
C 3072 2790 2771 2496 2656 2151 
L 2650 2151 
C 2573 2676 2195 2790 1837 2790 
C 1331 2790 1069 2400 973 2144 
L 966 2144 
L 966 2790 
L 211 2720 
L 211 2554 
C 589 2554 646 2515 646 2208 
L 646 428 
C 646 184 621 153 211 153 
L 211 -13 
C 365 0 646 0 813 0 
C 979 0 1267 0 1421 -13 
L 1421 153 
C 1011 153 986 178 986 428 
L 986 1658 
C 986 2247 1344 2688 1792 2688 
C 2266 2688 2317 2266 2317 1958 
L 2317 428 
C 2317 184 2291 153 1882 153 
L 1882 -13 
C 2035 0 2317 0 2483 0 
C 2650 0 2938 0 3091 -13 
L 3091 153 
C 2682 153 2656 178 2656 428 
L 2656 1658 
C 2656 2247 3014 2688 3462 2688 
C 3936 2688 3987 2266 3987 1958 
L 3987 428 
C 3987 184 3962 153 3552 153 
L 3552 -13 
C 3706 0 3987 0 4154 0 
C 4320 0 4608 0 4762 -13 
L 4762 153 
C 4352 153 4326 178 4326 428 
L 4326 1933 
z
" transform="scale(0.015625)"/>
      <path id="CMR17-61" d="M 2304 1653 
C 2304 2072 2304 2294 2035 2543 
C 1798 2752 1523 2816 1306 2816 
C 800 2816 435 2407 435 1971 
C 435 1728 627 1728 666 1728 
C 749 1728 896 1778 896 1954 
C 896 2112 774 2181 666 2181 
C 640 2181 608 2174 589 2168 
C 723 2592 1069 2714 1293 2714 
C 1613 2714 1965 2429 1965 1885 
L 1965 1600 
C 1587 1600 1133 1549 774 1357 
C 371 1133 256 813 256 570 
C 256 77 832 -64 1171 -64 
C 1523 -64 1850 139 1990 511 
C 2003 233 2182 -18 2464 -18 
C 2598 -18 2938 70 2938 567 
L 2938 920 
L 2822 920 
L 2822 562 
C 2822 178 2650 128 2566 128 
C 2304 128 2304 458 2304 738 
L 2304 1653 
z
M 1965 870 
C 1965 317 1568 38 1216 38 
C 896 38 646 275 646 570 
C 646 761 730 1100 1101 1305 
C 1408 1478 1760 1504 1965 1504 
L 1965 870 
z
" transform="scale(0.015625)"/>
      <path id="CMR17-6f" d="M 2758 1356 
C 2758 2176 2163 2816 1466 2816 
C 768 2816 173 2176 173 1356 
C 173 551 768 -64 1466 -64 
C 2163 -64 2758 551 2758 1356 
z
M 1466 51 
C 1165 51 909 230 762 480 
C 602 767 582 1126 582 1408 
C 582 1677 595 2010 762 2298 
C 890 2509 1139 2714 1466 2714 
C 1754 2714 1997 2554 2150 2330 
C 2349 2029 2349 1607 2349 1408 
C 2349 1158 2336 775 2163 467 
C 1984 173 1709 51 1466 51 
z
" transform="scale(0.015625)"/>
     </defs>
     <use xlink:href="#CMR17-4b" transform="scale(0.996264)"/>
     <use xlink:href="#CMR17-65" transform="translate(71.674777 0) scale(0.996264)"/>
     <use xlink:href="#CMR17-72" transform="translate(112.160438 0) scale(0.996264)"/>
     <use xlink:href="#CMR17-6e" transform="translate(147.441206 0) scale(0.996264)"/>
     <use xlink:href="#CMR17-65" transform="translate(198.336575 0) scale(0.996264)"/>
     <use xlink:href="#CMR17-6c" transform="translate(238.822236 0) scale(0.996264)"/>
     <use xlink:href="#CMR17-44" transform="translate(293.769261 0) scale(0.996264)"/>
     <use xlink:href="#CMR17-65" transform="translate(364.162817 0) scale(0.996264)"/>
     <use xlink:href="#CMR17-6e" transform="translate(404.648477 0) scale(0.996264)"/>
     <use xlink:href="#CMR17-73" transform="translate(455.543847 0) scale(0.996264)"/>
     <use xlink:href="#CMR17-69" transform="translate(491.345184 0) scale(0.996264)"/>
     <use xlink:href="#CMR17-74" transform="translate(516.216243 0) scale(0.996264)"/>
     <use xlink:href="#CMR17-79" transform="translate(548.894557 0) scale(0.996264)"/>
     <use xlink:href="#CMR17-45" transform="translate(627.263439 0) scale(0.996264)"/>
     <use xlink:href="#CMR17-73" transform="translate(689.84974 0) scale(0.996264)"/>
     <use xlink:href="#CMR17-74" transform="translate(725.651077 0) scale(0.996264)"/>
     <use xlink:href="#CMR17-69" transform="translate(760.931845 0) scale(0.996264)"/>
     <use xlink:href="#CMR17-6d" transform="translate(785.802903 0) scale(0.996264)"/>
     <use xlink:href="#CMR17-61" transform="translate(862.722493 0) scale(0.996264)"/>
     <use xlink:href="#CMR17-74" transform="translate(908.41297 0) scale(0.996264)"/>
     <use xlink:href="#CMR17-69" transform="translate(943.693738 0) scale(0.996264)"/>
     <use xlink:href="#CMR17-6f" transform="translate(968.564797 0) scale(0.996264)"/>
     <use xlink:href="#CMR17-6e" transform="translate(1014.255274 0) scale(0.996264)"/>
    </g>
   </g>
   <g id="legend_1">
    <g id="line2d_135">
     <path d="M 249.56682 30.40218 
L 259.56682 30.40218 
L 269.56682 30.40218 
" style="fill: none; stroke: #0c5da5; stroke-linecap: square"/>
    </g>
    <g id="text_18">
     <!-- Estimated Density -->
     <g transform="translate(277.56682 33.90218) scale(0.1 -0.1)">
      <defs>
       <path id="CMR17-64" d="M 1869 4326 
L 1869 4160 
C 2246 4160 2304 4122 2304 3820 
L 2304 2345 
C 2278 2377 2016 2790 1498 2790 
C 845 2790 211 2208 211 1364 
C 211 525 806 -64 1434 -64 
C 1978 -64 2259 337 2291 380 
L 2291 -63 
L 3066 -63 
L 3066 128 
C 2688 128 2630 166 2630 473 
L 2630 4396 
L 1869 4326 
z
M 2291 755 
C 2291 563 2176 390 2029 262 
C 1811 70 1594 38 1472 38 
C 1286 38 621 134 621 1356 
C 621 2612 1363 2688 1530 2688 
C 1824 2688 2061 2522 2208 2291 
C 2291 2157 2291 2138 2291 2023 
L 2291 755 
z
" transform="scale(0.015625)"/>
      </defs>
      <use xlink:href="#CMR17-45" transform="scale(0.996264)"/>
      <use xlink:href="#CMR17-73" transform="translate(62.586301 0) scale(0.996264)"/>
      <use xlink:href="#CMR17-74" transform="translate(98.387638 0) scale(0.996264)"/>
      <use xlink:href="#CMR17-69" transform="translate(133.668406 0) scale(0.996264)"/>
      <use xlink:href="#CMR17-6d" transform="translate(158.539464 0) scale(0.996264)"/>
      <use xlink:href="#CMR17-61" transform="translate(235.459054 0) scale(0.996264)"/>
      <use xlink:href="#CMR17-74" transform="translate(281.149531 0) scale(0.996264)"/>
      <use xlink:href="#CMR17-65" transform="translate(316.430299 0) scale(0.996264)"/>
      <use xlink:href="#CMR17-64" transform="translate(356.91596 0) scale(0.996264)"/>
      <use xlink:href="#CMR17-44" transform="translate(437.887296 0) scale(0.996264)"/>
      <use xlink:href="#CMR17-65" transform="translate(508.280852 0) scale(0.996264)"/>
      <use xlink:href="#CMR17-6e" transform="translate(548.766512 0) scale(0.996264)"/>
      <use xlink:href="#CMR17-73" transform="translate(599.661882 0) scale(0.996264)"/>
      <use xlink:href="#CMR17-69" transform="translate(635.46322 0) scale(0.996264)"/>
      <use xlink:href="#CMR17-74" transform="translate(660.334278 0) scale(0.996264)"/>
      <use xlink:href="#CMR17-79" transform="translate(693.012592 0) scale(0.996264)"/>
     </g>
    </g>
    <g id="line2d_136">
     <path d="M 249.56682 44.339358 
L 259.56682 44.339358 
L 269.56682 44.339358 
" style="fill: none; stroke: #00b945; stroke-linecap: square"/>
    </g>
    <g id="text_19">
     <!-- True Density -->
     <g transform="translate(277.56682 47.839358) scale(0.1 -0.1)">
      <defs>
       <path id="CMR17-54" d="M 3981 4326 
L 288 4326 
L 179 2918 
L 294 2918 
C 378 3976 467 4160 1453 4160 
C 1568 4160 1754 4160 1805 4154 
C 1926 4135 1926 4058 1926 3912 
L 1926 459 
C 1926 230 1907 160 1376 160 
L 1197 160 
L 1197 0 
C 1504 0 1824 0 2138 0 
C 2451 0 2771 0 3078 0 
L 3078 160 
L 2899 160 
C 2368 160 2349 230 2349 459 
L 2349 3912 
C 2349 4052 2349 4129 2464 4154 
C 2515 4160 2701 4160 2816 4160 
C 3795 4160 3891 3976 3974 2918 
L 4090 2918 
L 3981 4326 
z
" transform="scale(0.015625)"/>
       <path id="CMR17-75" d="M 1882 2693 
L 1882 2528 
C 2259 2528 2317 2489 2317 2186 
L 2317 1032 
C 2317 500 2029 38 1555 38 
C 1030 38 986 348 986 678 
L 986 2763 
L 211 2693 
L 211 2528 
C 467 2528 640 2528 646 2274 
L 646 1058 
C 646 633 646 361 813 183 
C 896 101 1056 -64 1517 -64 
C 2061 -64 2272 377 2323 506 
L 2330 506 
L 2330 -63 
L 3091 -63 
L 3091 128 
C 2714 128 2656 166 2656 473 
L 2656 2763 
L 1882 2693 
z
" transform="scale(0.015625)"/>
      </defs>
      <use xlink:href="#CMR17-54" transform="scale(0.996264)"/>
      <use xlink:href="#CMR17-72" transform="translate(58.702625 0) scale(0.996264)"/>
      <use xlink:href="#CMR17-75" transform="translate(93.983393 0) scale(0.996264)"/>
      <use xlink:href="#CMR17-65" transform="translate(144.878763 0) scale(0.996264)"/>
      <use xlink:href="#CMR17-44" transform="translate(215.44039 0) scale(0.996264)"/>
      <use xlink:href="#CMR17-65" transform="translate(285.833945 0) scale(0.996264)"/>
      <use xlink:href="#CMR17-6e" transform="translate(326.319606 0) scale(0.996264)"/>
      <use xlink:href="#CMR17-73" transform="translate(377.214976 0) scale(0.996264)"/>
      <use xlink:href="#CMR17-69" transform="translate(413.016313 0) scale(0.996264)"/>
      <use xlink:href="#CMR17-74" transform="translate(437.887372 0) scale(0.996264)"/>
      <use xlink:href="#CMR17-79" transform="translate(470.565686 0) scale(0.996264)"/>
     </g>
    </g>
   </g>
  </g>
 </g>
 <defs>
  <clipPath id="p307fbf2324">
   <rect x="32.685756" y="17.90218" width="334.8" height="221.76"/>
  </clipPath>
 </defs>
</svg>
